<svg xmlns="http://www.w3.org/2000/svg" width="203.361" height="233.49" viewBox="0 0 203.361 233.49"><path d="M269.885,65.53l-34.517.087,3.136,7.1,28.227-.067.716,169.912-12.353.027.009,2.386-157.8.387L96.62,82.486l3.128-.007L99.7,73.055l28.227-.067,3.075-7.112-34.517.087c-5.513.02-9.968,3.439-9.959,7.645l.751,178.07c.026,4.206,4.508,7.6,10.02,7.6l173.4-.427c5.513-.02,9.968-3.439,9.959-7.645l-.751-178.07C279.888,68.923,275.407,65.523,269.885,65.53Z" transform="translate(-81.926 -32.491)" fill="#8a5d3b"/><path d="M270.816,267.32l-173.4.427c-5.513.007-9.994-3.393-10.02-7.6l.009,3.193c.026,4.206,4.508,7.6,10.02,7.6l173.4-.427c5.513-.02,9.968-3.439,9.959-7.645l-.017-3.193C280.784,263.881,276.329,267.3,270.816,267.32ZM255.2,251.058l-154.674.38-.017-3.193-.149-35.845L99.849,90.95l-3.128.007.515,121.75.175,41.123,157.8-.387Z" transform="translate(-82.036 -40.969)" fill="#5e3f2a"/><path d="M237.628,51.553l-.778-1.76-.778-1.76-.454-1.026-90.664.227-.446,1.026-.76,1.76-.909,2.1c46.022,19.529,87.51,6.152,96.308,2.879ZM203.9,37.3l-.017-4.166c-.035-5.432-5.818-9.818-12.947-9.811l-1.485.007c-7.12.027-12.868,4.439-12.86,9.878l.026,5.272A39.5,39.5,0,0,0,203.9,37.3Zm-21.561-5.672a5.215,5.215,0,0,1,.079-.826,4.073,4.073,0,0,1-.035-.46c-.009-3.306,3.486-5.985,7.81-6s7.845,2.653,7.863,5.959c0,.153-.017.3-.026.447a4.451,4.451,0,0,1,.087.84c.017,3.326-3.5,6.032-7.863,6.039S182.345,34.95,182.336,31.625Z" transform="translate(-89.042 -18.414)" fill="#b3b3b3"/><path d="M202.957,44.29a39.524,39.524,0,0,1-27.292,1.173l.017,3.812,27.292-.067ZM241.37,69.151l-.778-1.753-.778-1.76-1.607-3.646c-8.8,3.273-50.286,16.649-96.308-2.879l-2.927,6.772-.76,1.76-.76,1.76L135.4,74.149l108.067-.267Z" transform="translate(-88.102 -25.408)" fill="gray"/><path d="M264.712,61.394l-22.076.053,2.6,5.9,1.04,2.353L125.413,70l3.573-8.271-22.076.053.69,162.873,157.8-.387ZM184.9,22.623l1.485-.007C193.512,22.61,199.3,27,199.33,32.427l-.009-1.386c-.035-5.439-5.818-9.818-12.947-9.811l-1.485.007c-7.12.027-12.868,4.439-12.86,9.878l.009,1.386C172.03,27.069,177.778,22.65,184.9,22.623Zm45.585,22.335L141,45.177l-.585,1.353,90.664-.22ZM188.9,29.615c-.009-1.36-1.459-2.453-3.232-2.453s-3.215,1.113-3.215,2.466,1.459,2.453,3.232,2.453S188.9,30.974,188.9,29.615Zm-11.025.487a5.215,5.215,0,0,0-.079.826c.017,3.326,3.556,6.012,7.915,6s7.88-2.713,7.863-6.039a4.449,4.449,0,0,0-.087-.84c-.288,3.093-3.652,5.539-7.784,5.552S178.2,33.187,177.874,30.1Z" transform="translate(-84.502 -17.717)" fill="#1d1d1d"/><path d="M269.21,45.479l-36.054.087-2.6-5.892-29.808.073L200.7,29.277c-.035-7.378-7.9-13.343-17.577-13.317l-1.485.007c-9.671.027-17.49,6.025-17.455,13.4l.044,10.471-29.808.073-2.551,5.905-36.054.087c-8.064.02-14.581,5.025-14.555,11.177l.76,181.262c.026,6.152,6.587,11.124,14.651,11.1l173.4-.427c8.064-.02,14.581-5.025,14.554-11.177l-.76-181.262C283.835,50.432,277.274,45.459,269.21,45.479ZM168.8,29.357c-.009-5.439,5.74-9.851,12.86-9.878l1.485-.007c7.129-.007,12.912,4.379,12.947,9.811l.044,10.471-27.292.067ZM131.371,58.2l.76-1.76,3.835-8.871.76-1.76.446-1.026.585-1.353,89.485-.22.594,1.353.454,1.026.778,1.76.778,1.76,1.52,3.446,1.607,3.646.778,1.76.778,1.753,2.1,4.739-108.067.267,2.053-4.746ZM242,65.594l-2.6-5.9,22.076-.053.69,162.874-157.8.387-.69-162.874,22.076-.053-3.573,8.271,120.865-.293Zm38.011,172.265c.009,4.206-4.447,7.625-9.959,7.645l-173.4.427c-5.513.007-9.994-3.393-10.02-7.6L85.864,57.07c-.009-4.206,4.447-7.625,9.959-7.645l34.517-.087-3.075,7.112-28.227.067.716,169.912,167.027-.407s-.227-53.931-.406-96.408-.31-73.5-.31-73.5l-28.227.067-3.136-7.1,34.517-.087c5.513-.007,9.994,3.393,10.02,7.6Zm-97.6-215.974c-4.324.013-7.828,2.693-7.81,6a4.077,4.077,0,0,0,.035.46c.323,3.086,3.7,5.505,7.828,5.5s7.5-2.459,7.784-5.552a3.828,3.828,0,0,0,.026-.447C190.253,24.545,186.732,21.879,182.408,21.885Zm.035,8.438c-1.782,0-3.224-1.093-3.232-2.453s1.433-2.459,3.215-2.466,3.224,1.093,3.232,2.453S184.225,30.316,182.443,30.323Z" transform="translate(-81.26 -15.96)"/></svg>