<?xml version="1.0" encoding="utf-8"?>
<!-- Generator: Adobe Illustrator 27.5.0, SVG Export Plug-In . SVG Version: 6.00 Build 0)  -->
<svg version="1.1" id="Layer_1" xmlns="http://www.w3.org/2000/svg" xmlns:xlink="http://www.w3.org/1999/xlink" x="0px" y="0px"
	 viewBox="0 0 203.4 233.5" style="enable-background:new 0 0 203.4 233.5;" xml:space="preserve">
<style type="text/css">
	.st0{fill:#E0D8CD;}
	.st1{fill:#5E3F2A;}
	.st2{fill:#B3B3B3;}
	.st3{fill:#808080;}
	.st4{fill:#1D1D1D;}
</style>
<path class="st0" d="M188,33l-34.5,0.1l3.1,7.1l28.2-0.1l0.7,169.9l-12.4,0l0,2.4l-157.8,0.4L14.7,50l3.1,0l0-9.4L46,40.5l3.1-7.1
	l-34.5,0.1c-5.5,0-10,3.4-10,7.6l0.8,178.1c0,4.2,4.5,7.6,10,7.6l173.4-0.4c5.5,0,10-3.4,10-7.6L198,40.6C198,36.4,193.5,33,188,33z
	"/>
<path class="st1" d="M188.8,226.4l-173.4,0.4c-5.5,0-10-3.4-10-7.6l0,3.2c0,4.2,4.5,7.6,10,7.6l173.4-0.4c5.5,0,10-3.4,10-7.6l0-3.2
	C198.7,222.9,194.3,226.3,188.8,226.4z M173.2,210.1l-154.7,0.4l0-3.2l-0.1-35.8L17.8,50l-3.1,0l0.5,121.8l0.2,41.1l157.8-0.4
	L173.2,210.1z"/>
<path class="st2" d="M148.6,33.1l-0.8-1.8l-0.8-1.8l-0.5-1l-90.7,0.2l-0.4,1l-0.8,1.8l-0.9,2.1c46,19.5,87.5,6.2,96.3,2.9
	L148.6,33.1z M114.9,18.9l0-4.2c0-5.4-5.8-9.8-12.9-9.8l-1.5,0c-7.1,0-12.9,4.4-12.9,9.9l0,5.3C96.5,22.9,106.2,22.5,114.9,18.9z
	 M93.3,13.2c0-0.3,0-0.6,0.1-0.8c0-0.2,0-0.3,0-0.5c0-3.3,3.5-6,7.8-6s7.8,2.7,7.9,6c0,0.2,0,0.3,0,0.4c0.1,0.3,0.1,0.6,0.1,0.8
	c0,3.3-3.5,6-7.9,6S93.3,16.5,93.3,13.2L93.3,13.2z"/>
<path class="st3" d="M114.9,18.9c-8.7,3.6-18.3,4-27.3,1.2l0,3.8l27.3-0.1L114.9,18.9z M153.3,43.7l-0.8-1.8l-0.8-1.8l-1.6-3.6
	c-8.8,3.3-50.3,16.6-96.3-2.9l-2.9,6.8l-0.8,1.8L49.4,44l-2.1,4.7l108.1-0.3L153.3,43.7z"/>
<path class="st4" d="M180.2,43.7l-22.1,0.1l2.6,5.9l1,2.4L40.9,52.3l3.6-8.3l-22.1,0.1l0.7,162.9l157.8-0.4L180.2,43.7z M100.4,4.9
	l1.5,0c7.1,0,12.9,4.4,12.9,9.8l0-1.4c0-5.4-5.8-9.8-12.9-9.8l-1.5,0c-7.1,0-12.9,4.4-12.9,9.9l0,1.4C87.5,9.4,93.3,4.9,100.4,4.9z
	 M146,27.2l-89.5,0.2l-0.6,1.4l90.7-0.2L146,27.2z M104.4,11.9c0-1.4-1.5-2.5-3.2-2.5S98,10.6,98,11.9s1.5,2.5,3.2,2.5
	S104.4,13.3,104.4,11.9z M93.4,12.4c0,0.3-0.1,0.5-0.1,0.8c0,3.3,3.6,6,7.9,6s7.9-2.7,7.9-6c0-0.3,0-0.6-0.1-0.8
	c-0.3,3.1-3.7,5.5-7.8,5.6S93.7,15.5,93.4,12.4L93.4,12.4z"/>
<path d="M187.9,29.5l-36.1,0.1l-2.6-5.9l-29.8,0.1l0-10.5c0-7.4-7.9-13.3-17.6-13.3l-1.5,0c-9.7,0-17.5,6-17.5,13.4l0,10.5L53.2,24
	l-2.6,5.9l-36.1,0.1C6.5,30,0,35,0,41.1l0.8,181.3c0,6.2,6.6,11.1,14.7,11.1l173.4-0.4c8.1,0,14.6-5,14.6-11.2l-0.8-181.3
	C202.6,34.5,196,29.5,187.9,29.5z M87.5,13.4c0-5.4,5.7-9.9,12.9-9.9l1.5,0c7.1,0,12.9,4.4,12.9,9.8l0,10.5l-27.3,0.1L87.5,13.4z
	 M50.1,42.2l0.8-1.8l3.8-8.9l0.8-1.8l0.4-1l0.6-1.4l89.5-0.2l0.6,1.4l0.5,1l0.8,1.8l0.8,1.8l1.5,3.4l1.6,3.6l0.8,1.8l0.8,1.8
	l2.1,4.7L47.3,48.8l2.1-4.7L50.1,42.2z M160.7,49.6l-2.6-5.9l22.1-0.1l0.7,162.9l-157.8,0.4L22.4,44.1L44.5,44l-3.6,8.3L161.8,52
	L160.7,49.6z M198.8,221.9c0,4.2-4.4,7.6-10,7.6L15.4,230c-5.5,0-10-3.4-10-7.6L4.6,41.1c0-4.2,4.4-7.6,10-7.6l34.5-0.1L46,40.5
	l-28.2,0.1l0.7,169.9l167-0.4c0,0-0.2-53.9-0.4-96.4s-0.3-73.5-0.3-73.5l-28.2,0.1l-3.1-7.1L188,33c5.5,0,10,3.4,10,7.6L198.8,221.9
	z M101.2,5.9c-4.3,0-7.8,2.7-7.8,6c0,0.2,0,0.3,0,0.5c0.3,3.1,3.7,5.5,7.8,5.5s7.5-2.5,7.8-5.6c0-0.1,0-0.3,0-0.4
	C109,8.6,105.5,5.9,101.2,5.9L101.2,5.9z M101.2,14.4c-1.8,0-3.2-1.1-3.2-2.5s1.4-2.5,3.2-2.5s3.2,1.1,3.2,2.5S103,14.4,101.2,14.4
	L101.2,14.4z"/>
</svg>
