<svg xmlns="http://www.w3.org/2000/svg" width="69.237" height="119.588" viewBox="0 0 69.237 119.588"><g transform="translate(0.028 0.021)"><path d="M42.937,68.172C21.431,72.225,3.455,59.739.317,38.887-2.624,19.211,13.652.581,33.459-.007c16.081-.458,32.488,10.851,35.3,29.089C71.568,47.058,61.044,62.942,42.937,68.172Z" transform="translate(0)" fill="#ee1a92"/><path d="M63.965,104.911c1.373.261.523.981.327,1.438a335.122,335.122,0,0,1-16.081,42.881,16.7,16.7,0,0,1-1.765,2.942c-3.465,4.51-9.021,4.445-12.42-.065a37.74,37.74,0,0,1-4.053-7.713A313.128,313.128,0,0,1,15.2,103.8a48.012,48.012,0,0,0,8.432,7.19c.85.523.981,1.569,1.307,2.419,1.373,3.922,2.745,7.844,4.184,11.766.85,2.353,2.484,3.4,4.837,2.549,2.419-.85,2.419-2.745,1.634-4.9-.915-2.419-1.7-4.9-2.745-7.779C45.139,117.2,55.467,113.932,63.965,104.911Z" transform="translate(-5.274 -35.955)" fill="#231f20"/></g></svg>