<?xml version="1.0" encoding="utf-8"?>
<!-- Generator: Adobe Illustrator 27.4.1, SVG Export Plug-In . SVG Version: 6.00 Build 0)  -->
<svg version="1.1" id="Layer_1" xmlns="http://www.w3.org/2000/svg" xmlns:xlink="http://www.w3.org/1999/xlink" x="0px" y="0px"
	 viewBox="0 0 413.6 262.5" style="enable-background:new 0 0 413.6 262.5;" xml:space="preserve">
<style type="text/css">
	.st0{fill:#231F20;}
	.st1{fill:#EE1A92;}
	.st2{fill:#FFFFFF;}
	.st3{fill:#AFAFAF;}
	.st4{fill:#CCCCCC;}
	.st5{fill:#E6E6E6;}
	.st6{fill:#656565;}
	.st7{fill:#C0C0C0;}
	.st8{fill:#FCFBFC;}
</style>
<path class="st0" d="M122.7,215.2c95.3,0,190.1,0,284.9-0.1c4.8,0,6.2,1.1,6,6c-0.4,12.1-0.3,24.2,0,36.3c0.1,4.1-1.3,4.9-5.1,4.9
	c-69.3-0.1-138.6-0.1-207.9-0.1c-65,0-130,0-195,0.1c-4.4,0-5.6-1.1-5.5-5.5c0.2-12.1,0.3-24.2-0.1-36.3c-0.1-4.6,1.5-5.4,5.6-5.4
	C44.5,215.3,83.4,215.2,122.7,215.2z"/>
<path class="st0" d="M413.8,157.3c-3.9,19.5-21.8,29.3-41,22.8c-7.7-2.6-14.1-7.3-19.3-13.6c-6.6-7.8-13.1-15.6-19.7-23.4
	c-3.9-4.6-4.6-4.6-8.3,0c-6.6,8.2-12.9,16.6-19.8,24.6c-10,11.7-22.5,17.6-38.2,14.2c-16.2-3.5-25.7-19.4-20.9-35.4
	c2.3-7.8,6.4-14.5,11.5-20.8c9.2-11.4,18.4-22.8,27.8-34.1c1.9-2.3,1.9-3.7,0-6c-7.8-9.3-15.5-18.6-23-28.1
	c-5.6-7-10.6-14.5-12.1-23.5c-3.6-21.7,15.7-38.1,38-32.4c9.1,2.3,16.6,7.3,22.3,14.7c5,6.4,9.8,13,14.6,19.5c2.3,3.2,4.2,3.4,6.5,0
	c4.6-6.7,9.3-13.3,14.1-19.9c9.2-12.6,25.1-18.6,39.6-15.1c16,4,25,19.6,20.2,35.5c-2.3,7.7-6.6,14.5-11.5,20.8
	c-7.1,9-14,18.2-21.3,27c-2.3,2.8-2.5,4.6,0,7.6c9.5,10.8,18.8,21.7,27.8,32.8C408.6,133.9,415.2,143.8,413.8,157.3z"/>
<path class="st0" d="M0.8,41.2c0-3.8,0-7.2,0-10.5C1.1,15.5,9.4,5.1,24.1,1.6c7.1-1.7,14.2-1.7,21.3-0.1c14.9,3.4,23.5,14,23.6,29.4
	c0.1,27.2,0,54.5,0.1,81.7c0,7.2-0.8,6.2,6.4,6.3c12.3,0.2,24.6-0.8,36.8,0.5c18.7,2,29.1,13.5,29.1,31c0,17.4-10.2,29.7-28.7,30.7
	c-28.3,1.5-56.7,1.8-84.9-0.2c-17.4-1.4-26.9-13.4-27-30.8C0.8,114,0.8,77.8,0.8,41.2z"/>
<path class="st1" d="M199.5,104.1c-32.9,6.2-60.4-12.9-65.2-44.8C129.8,29.2,154.7,0.7,185-0.2c24.6-0.7,49.7,16.6,54,44.5
	C243.3,71.8,227.2,96.1,199.5,104.1z"/>
<path class="st0" d="M223.6,105.3c2.1,0.4,0.8,1.5,0.5,2.2c-6.5,22.5-15.1,44.2-24.6,65.6c-0.7,1.6-1.7,3.1-2.7,4.5
	c-5.3,6.9-13.8,6.8-19-0.1c-2.7-3.6-4.4-7.7-6.2-11.8c-8.7-19.8-16.3-40-22.6-62.1c4.6,4.6,8.4,8.2,12.9,11c1.3,0.8,1.5,2.4,2,3.7
	c2.1,6,4.2,12,6.4,18c1.3,3.6,3.8,5.2,7.4,3.9c3.7-1.3,3.7-4.2,2.5-7.5c-1.4-3.7-2.6-7.5-4.2-11.9
	C194.8,124.1,210.6,119.1,223.6,105.3z"/>
<path class="st2" d="M238.4,234.7c0.5,2.7,1.9,3.5,4.3,2.8c1.3-0.4,2.8-0.4,2.8,1.4c0,1.7-1.3,1.6-2.7,1.6c-2.4,0-6.2-2.1-5.6,3.4
	c0.2,2.1,0.4,3.1,2.8,3c2.2-0.1,4.4,0.8,6.6-0.1c1.1-0.4,2.3-0.5,2.5,1.1c0.2,1.8-1,2.1-2.4,2c-2.9-0.1-5.7-0.3-8.6-0.3
	c-2,0-2.8-0.8-3.1-2.8c-0.3-2.5-0.3-5,0-7.6c0.9-10.3,0.8-10.2,10.9-10.6c1.4,0,2.2,0.3,2.3,1.7c0,1.5-1,1.9-2.3,1.8
	c-2.9-0.2-5.8-0.5-8.5,1.7C237.5,233.6,237.9,234.1,238.4,234.7z"/>
<path class="st2" d="M304.7,245.3c0.2,1.2,1.1,2.5-0.3,3.1c-1.3,0.5-1.9-0.8-1.9-2c0-5.2,0-10.5,0-15.7c0-0.6,0.2-1.3,0.6-1.7
	c1-1.1,9.6-0.7,10.9,0.6c2.9,2.8,3.1,5.7,0.2,8.6c-2.9,2.8-0.1,4.8,1,7c0.5,1,2,2.3,0.3,3.1c-1.3,0.7-1.7-1-2.2-1.9
	c-0.8-1.5-1.5-3.1-2.1-4.8c-0.8-2.5-2.3-2.7-4.7-1.6C305.1,241.5,305.6,243.4,304.7,245.3z"/>
<path class="st2" d="M104.7,242.5c-1.5,3.8-2.8,7.4-7.7,6.7c-4.3-0.6-7-4.1-7.2-9.3c-0.2-5.7,1.7-9.3,5.5-10.5
	c3.2-1,5.9-0.8,7.7,2.9C105.9,235.5,105.8,238.8,104.7,242.5z"/>
<path class="st2" d="M52.9,229c4.1,1.6,4.6,4.8,3.9,8c-0.7,3.3-3.8,3.8-6.5,3.7c-4.4-0.3-5.4,1.5-4.3,5.4c0.3,1,1.1,2.4-0.7,2.6
	c-1.2,0.1-2-1.2-1.7-2.4c1-4.9,0.1-9.8,0.4-14.8c0.1-2.3,1.1-3.1,3.3-2.9C49.1,228.8,50.8,228.8,52.9,229z"/>
<path class="st2" d="M20.7,242.7c-0.1,4.4,3,2.9,5,3.1c2.1,0.2,3.2-1.3,3.3-3.3c0.1-3.8,0.1-7.6,0.1-11.4c0-1.3,0.1-3,1.6-3
	c1.8,0.1,1.2,1.9,1,3.1c-0.7,3.6-0.8,7.3-0.2,10.9c0.9,5.8-4.3,5.2-7.1,6c-2.5,0.7-5.7-0.7-6.1-4.2c-0.5-4.6-0.9-9.2-0.8-13.8
	c0-2.3,1.6-2.1,2.9,0c0.8,3.3,0,6.4,0.9,9.6C21.3,240.9,21.2,241.6,20.7,242.7z"/>
<path class="st2" d="M192,245.4c-0.1-3.1-0.3-5.8-0.2-8.5s-0.2-5-3.7-5.7c2.5-2.5,5.6-0.5,7.9-2.2c0.6-0.5,1.2,0.8,1.4,1.5
	c0.2,0.9-0.2,1.8-1,1.8c-3.9-0.3-2.6,2.6-2.7,4.5c-0.1,2.2-0.1,4.4,0,6.7c0,1.6-0.7,3.8,2.5,2.9c1-0.3,1.3,0.8,1.4,1.5
	c0.1,1.1-0.5,1.8-1.7,1.8c-2.2,0-4.4,0-6.6,0C188.8,247.2,192.3,248,192,245.4z"/>
<path class="st2" d="M357.6,233.3c0.5-1.7-0.4-3.6,1.7-4.8c2.7,6.2,4.5,12.8,7.7,18.7c0.3,0.6,0.4,1.2-0.2,1.7
	c-0.9,0.6-1.5,0.1-2-0.5c-3.4-3.7-9-3.5-12.4,1.1c-0.8-3,1.6-4.7,2-7.1c0.4-0.7,0.8-0.9,1.6-1.1c5.4-0.1,5.4-0.2,1.8-6.7
	C357.6,234.1,357.5,233.9,357.6,233.3z"/>
<path class="st2" d="M332.7,237.3c2,1.6,5.8-1.9,5.8,1.4c0,3.7-3.8,0.6-5.8,1.5c-0.8,0.4-2-0.2-2.4,1.4c0.7,1.4,0.9,2.4,0.2,4
	c2.7,1.9,5.7,1.7,8.7,1.3c1.3-0.2,3.2-1.1,3.1,1.3c0,2.1-1.8,1.7-3.3,1.6c-0.2,0-0.3-0.1-0.5-0.1c-11.1-0.6-11.1-0.6-10.3-12.1
	c0.3-0.7,0.7-0.9,1.4-1.1C330.9,236.5,331.7,236.7,332.7,237.3z"/>
<path class="st2" d="M157,249.2c-2.5-1.1-3.2-2.3-2-5c1.7-3.6,1-7.8,0.8-11.7c0-1.7-0.3-3.1,2.1-3.9
	C158.2,235.6,159.2,242.4,157,249.2z"/>
<path class="st2" d="M279.4,245.2c-3.2-3.5-2.8-7.5-1.4-11.6c1.1-3.3,3.9-4.6,7.1-4.6c2.8,0,4.1,2.7,5.8,4.5
	c0.6,0.7,0.4,1.9-0.6,2.5c-1,0.6-1.2-0.4-1.7-1c-3.2-4.1-5.7-3.9-9.2,0.9c0.1,1.4,0.2,2.5-0.4,3.9c0.2,1.5,0.6,2.7,1.2,4.3
	C280.1,244.6,279.9,244.8,279.4,245.2z"/>
<path class="st2" d="M210.4,239.9c0.7,1.4,1,2.7,1.6,3.7c1.1,1.8,2.5,3.5,4.9,3.2c2.3-0.3,3.6-1.8,4.1-4.1c0.2-0.9,0.1-2,1.9-2
	c1,3.1,0.2,5.9-2.5,7.7c-2.6,1.8-5.5,1.2-7.9-1c-2-1.8-3-4.1-3.4-7C209.4,239.8,209.7,239.6,210.4,239.9z"/>
<path class="st2" d="M144.8,236.4c-0.2-1.9-0.3-3.7-0.5-5.4c-0.2-1.4,0.4-2.2,1.6-2.4c0.9-0.1,2.3-0.2,2.4,0.9
	c0.4,4.4,2.8,8,4.8,11.7c0.3,0.5-0.1,1.4-0.2,2.4c-2.8-2.4-3.2-6.2-6.6-7.9c-0.5,0.3-0.6,0.6-0.8,0.8
	C145.4,236.6,145,236.6,144.8,236.4z"/>
<path class="st2" d="M209.9,235.5c0.1-3.9,2.4-5.5,5.9-6.3s4.5,2.2,6.5,3.7c1,0.8,1.1,2.1,0.2,2.9c-1.6,1.3-1.6-0.6-2.2-1.3
	c-2.3-3.2-5-3.1-8.7,0.5C211,235.6,210.7,235.7,209.9,235.5z"/>
<path class="st2" d="M76,231.8c-1.3-0.5-2.1,3.4-3.3-0.2c-0.1-0.4-0.7-0.9-1-0.8c-2,0.4-4.8,1.1-4.6-1.7c0.1-1.7,3.3-0.4,5.1-0.6
	c1.7-0.2,3.5-0.1,5.2-0.1c1.5,0,3.6-2.1,4.2,0.8c0.7,3.3-2.5,1.8-4.3,2.6C76.7,231.9,76.5,232,76,231.8z"/>
<path class="st2" d="M389.5,234.5c0-1.7,0.9-2.9,2-3.8c0.5-0.4,1.6-0.8,2.1-0.6c1.1,0.7-0.3,1.7,0,2.8c0.4,1,0.6,1.7,0.6,2.9
	c0,0.9,0,1.4,0,2.3c-0.1,2.9,0.3,5.5-0.2,8.3c-0.1,1.1,0.4,2.4-0.9,2.5c-1.5,0.1-1.7-1-1.7-2.2c0-3.6,0-7.1,0-11.1
	C390.9,234.8,390.3,234.8,389.5,234.5z"/>
<path class="st2" d="M330.2,237c-0.6,0.2-1,0.2-1.6,0.2c-0.3-1.9-0.4-3.8-0.4-5.6c0-1.2,0.5-2.2,1.9-2.2c3.1-0.1,6.3,0.3,9.4-0.7
	c1.1-0.3,1.8,0.6,1.9,1.6c0.1,1.2-0.8,1.7-1.8,1.7c-1.6,0.1-3.1,0-5.1,0C331.3,232.4,331.6,235.1,330.2,237z"/>
<path class="st2" d="M282.2,246.5c5.4,1.2,6.4-2.6,8-7.2c1.7,4.1,0.9,6.7-1.1,8.5c-2.7,2.4-5.8,1.9-8.8-0.7
	C280.6,246.4,281.2,246.2,282.2,246.5z"/>
<path class="st2" d="M117.4,235.7c0.7,1.6,0.6,2.6,0.8,3.7c0.1,0.8-0.2,2.2,0.9,2.3c1.3,0.1,1.3-1.4,2.1-2.4c0.6-0.5,1-0.6,1.7-0.3
	c0.1,3.1-2.4,5.1-3.1,7.8c-0.4,1.4-2.4,1.9-2.5,0C117.2,242.9,115.1,239.2,117.4,235.7z"/>
<path class="st2" d="M389,234.5c0.8,0,1.4,0.2,2.1,0.5c-2.5-0.2-2,1.8-2.1,3.3c-0.1,1.8-0.6,3.5-1.7,4.9c-1,1.3-2.6,1.1-3.7,0
	c-1.2-1.2-0.1-1.5,0.9-2.2C386.8,239.4,387.3,236.7,389,234.5z"/>
<path class="st2" d="M123.3,238.8c-0.4,0.3-0.8,0.3-1.5,0.2c1.3-1.8-0.1-5.2,3.5-6.4c-0.5,3.2,3.5,5,2.1,8.5
	C125.2,241.2,125.8,237.7,123.3,238.8z"/>
<path class="st2" d="M131.6,243.6c-0.3,1.3-0.4,2.3-0.4,3.6c-2.5-0.9-4-2-2-5.3c1.2-2.1,0.8-5.1,1.3-8.1c0.6-0.6,1-0.5,1.5,0.2
	c0,2.3-0.2,4.2-0.3,6.6C132,241.7,132.1,242.5,131.6,243.6z"/>
<path class="st2" d="M144.5,236.7c0.2-0.4,0.6-0.4,0.8-0.4c0.4-0.2,0.5-0.4,0.9-0.3c0.2,0.3,0.2,0.2,0.1,0.2
	c-0.6,3.4-0.7,6.8-0.1,10.2c0.2,0.9,0.5,2-0.8,2.1c-1.3,0.1-1.3-1.2-1.3-2C144.2,243.4,144.3,240.2,144.5,236.7z"/>
<path class="st3" d="M330.2,237.4c0.1-2.6-1.4-6.2,3.7-5.5c-0.6,1.5-1.2,3-0.8,5.1C332.2,237.9,331.3,238,330.2,237.4z"/>
<path class="st3" d="M104.7,242.7c-0.3-3,0.3-6.3-1.4-9.7C107.1,235,107.6,237.7,104.7,242.7z"/>
<path class="st4" d="M131.6,244.1c-0.2-0.9-0.2-1.7-0.1-2.8c3.3-1.6,0.7-4.8,2.4-6.9c0.7,3.8,0.5,7.4-0.8,10.6
	C132.3,246.9,132.4,244.3,131.6,244.1z"/>
<path class="st2" d="M117.9,235.1c-1.9,0.3-2.5-0.9-2.6-4c0-1.2,0-2.3,1.2-2.7c0.9-0.3,1.3,0.6,1.3,1.4
	C117.9,231.3,117.9,232.9,117.9,235.1z"/>
<path class="st5" d="M20.7,240.1c-1-3-1-6-0.4-9.3c1.1-0.2,1.8,0.2,1.9,1.5C21,235,22.7,237.8,20.7,240.1z"/>
<path class="st2" d="M75.8,231.9c0.2-0.4,0.5-0.4,0.9-0.2c-0.7,5.4,1.3,10.8-1.4,16c-0.5-0.1-0.6-0.3-0.5-0.7
	C76.8,242,75.3,237.1,75.8,231.9z"/>
<path class="st2" d="M132.1,234c-0.5,0.1-0.9-0.1-1.5-0.5c-0.4-2-0.7-4.9,1-5.1c3.1-0.4,1.2,2,1,3.4
	C132.6,232.5,132.4,233,132.1,234z"/>
<path class="st2" d="M357.4,233.3c0.2-0.3,0.4,0.1,0.4,0.3c1.8,3.3,1.1,5.9-1.9,8.3c-0.6,0.3-0.9,0.3-1.3,0.2
	C354.4,238.9,356.7,236.5,357.4,233.3z"/>
<path class="st2" d="M74.9,246.3c0,0.6,0,0.8,0,1.2c-0.8,1.1-1.8,1.3-2,0c-0.5-2.6-0.3-5.3,0.9-7.8
	C75.2,241.7,74.4,243.9,74.9,246.3z"/>
<path class="st6" d="M304.9,245.6c-0.6-2-1.4-4.1,0.9-5.6C307.5,242.2,306.6,243.9,304.9,245.6z"/>
<path class="st7" d="M20.2,240.5c2-2.4,0.3-5.2,1.7-7.6c-0.1,3.1,1.5,6.7-1,10C20.4,242.3,20.3,241.6,20.2,240.5z"/>
<path class="st2" d="M378.7,246.5c0.1,1.3-0.4,2.1-1.6,2c-1,0-1.2-0.9-1.1-1.7c0.1-1.9,0.2-3.7,0.7-5.7c1.4,0.8,1.2,2.1,1.4,3.7
	C378.3,245.5,378.4,245.9,378.7,246.5z"/>
<path class="st2" d="M381.5,236.9c0.8,1.2,1.5,2.4,1.2,2.9c-0.9,1.6-1.8-1.6-3.3,0.1c-0.5,0.3-0.7,0.2-0.7-0.1
	C381.5,240,379.1,236.6,381.5,236.9z"/>
<path class="st3" d="M393.6,238.6c-0.2-0.9-0.2-1.3-0.2-2.1c0.4-0.6,0.8-0.8,1.5-0.5c0.4,3.5,1,6.7-0.3,10.3
	C393.2,244.3,394,241.6,393.6,238.6z"/>
<path class="st4" d="M393.4,238.6c1.6,1.9,0.5,4.6,0.9,7.6c0,0.5-0.1,0.5-0.1,0.5C392.3,244.4,393.7,241.6,393.4,238.6z"/>
<path class="st3" d="M330.6,245.8c-0.4-1-0.5-2-0.5-3.5C332.6,242.8,332.8,244.1,330.6,245.8z"/>
<path class="st2" d="M378.5,236.5c0.2,0.1,0.2,0.7,0.4,0.9c0.2,2.9,0.3,5.7,0.1,9c-0.4,0.2-0.7-0.1-1.1-0.7
	c-0.8-2.2-0.4-4.2-0.4-6.7C377.9,237.7,378.1,237.1,378.5,236.5z"/>
<path class="st7" d="M279.1,240c-0.4-1.1-0.4-2.2-0.1-3.6C280.7,237.4,281.1,238.6,279.1,240z"/>
<path class="st2" d="M377.9,237.6c-1.3-2-2.1-3.8-1.1-5.8c0.1-0.1,1.7,0.7,2.2,1.5C379.9,234.8,382,237.2,377.9,237.6z"/>
<path class="st2" d="M74.6,233.2c0.2,1.9,0.5,3.4-0.4,5C72.6,234.8,72.6,234.8,74.6,233.2z"/>
<path class="st7" d="M382.5,237.2c-0.4,0-0.7-0.2-0.7-0.3c0.7-0.9-0.6-2.6,1.1-2.6c1,0,1.1,1.3,1,2.6
	C383.4,237.2,383.2,237.2,382.5,237.2z"/>
<path class="st7" d="M117.9,235.8C118,235.6,118,235.7,117.9,235.8c0.1,0-0.1-0.2,0-0.4c0.9-0.4,1-1.9,2.2-1.4
	c0.2,0.1,0.4,0.5,0.4,0.7c0,1.3-0.9,1.4-2.1,1.5C118,236.2,117.8,235.9,117.9,235.8z"/>
<path class="st2" d="M210.6,239.7c-0.4,0.4-0.7,0.4-1.3,0.4c-0.3-0.7-0.3-1.5-0.2-2.5c0.4-0.4,0.6-0.5,1.1-0.5
	C210.6,237.9,210.7,238.6,210.6,239.7z"/>
<path class="st4" d="M395.1,236c-0.4,0.3-0.8,0.3-1.4,0.3c-0.3-0.8-0.3-1.5-0.2-2.6C395,233.5,395.2,234.5,395.1,236z"/>
<path class="st2" d="M210.7,237c-0.1,0.2-0.5,0.2-0.5,0.2s-0.4,0-0.7,0c-0.2-0.5-0.1-1,0-1.7c0.5-0.2,0.9-0.2,1.5-0.2
	C211.2,235.8,211,236.3,210.7,237z"/>
<path class="st2" d="M377.4,236.9c0.3,2.6,0.4,5.1,0.5,8.3c-1.6-1.3-1-4-1.1-7.2C376.9,237.3,377.2,236.8,377.4,236.9z"/>
<path class="st2" d="M238.5,234.1c-0.2,1.4-0.4,2.5-1.3,2c-0.9-0.5-0.7-1.5-0.3-2.5C237.4,233.5,237.9,233.4,238.5,234.1z"/>
<path class="st3" d="M376.7,236.9c0,0.4-0.1,0.6-0.2,0.8c-0.1-0.1-0.3-0.2-0.2-0.3C376.4,237.2,376.5,237,376.7,236.9z"/>
<path class="st2" d="M282.5,246.4c-0.4,0.3-1,0.3-2,0.3c-0.4,0-0.8-0.1-0.9-0.3c0.1-0.4,0.4-0.6,0.9-1
	C281.4,245.5,281.9,245.8,282.5,246.4z"/>
<path class="st4" d="M131.1,247.6c0.2,0.1,0.7,0.3,0.7,0.4c-0.2,0.4-0.4,0.4-0.6-0.2C131.1,247.5,131.2,247.6,131.1,247.6z"/>
<path class="st2" d="M280,244.7c0.5-0.1,0.7,0,0.9,0.3c-0.1,0.3-0.4,0.5-0.9,1c-0.6,0.1-0.7,0-0.9-0.4
	C279.2,245.2,279.4,245.1,280,244.7z"/>
<path class="st7" d="M383.7,237.2c0.1,0.1,0.3,0.2,0.4,0.4C384,237.5,383.9,237.5,383.7,237.2L383.7,237.2z"/>
<path class="st0" d="M304.6,233.4c2.4-3.4,5.5-2.4,8.3-1.5c1.3,0.4,1.4,2.2,0.7,3.4c-1.5,2.7-4,1.7-6.4,1.8
	C304.6,237.1,304.5,235.7,304.6,233.4z"/>
<path class="st0" d="M95.9,245.3c-0.6-0.3-0.9-0.5-1.2-1c-0.1-0.5-0.3-0.6-0.6-0.7c-3.1-2.5-2.3-5.6-1.3-8.6
	c0.7-2.2,2.6-3.6,5.1-3.6c2.7,0,3.8,2.1,4.5,4.2c1.8,4.9-0.2,9.4-5,11C96.5,246.4,96.4,245.9,95.9,245.3z"/>
<path class="st6" d="M95.7,245.6c0.8-0.8,1-0.2,1.3,0.7C96.4,246.7,95.9,246.5,95.7,245.6z"/>
<path class="st6" d="M94,243.9c0-0.4,0.1-0.8,0.3-1.1c0.2,0.2,0.4,0.3,0.5,0.8C94.5,244,94.4,244,94,243.9z"/>
<path class="st0" d="M46.3,236.1c0.7-1.8-1.4-4.4,1.5-4.5c2.3,0,5.3-1.4,6.8,1.6c0.8,1.5,0.4,3.5-1.3,4.1
	C51,238.1,48.3,239.7,46.3,236.1z"/>
<path class="st0" d="M355.6,242.5c1.1-2.8,2.5-5.1,2.2-8.2c3.6,1.1,3.6,4.8,4.8,7.7c0.5,1.2-0.8,1.4-1.8,1.3
	C359.1,243,357.4,243,355.6,242.5z"/>
<path class="st8" d="M146.9,236.2c-0.6,0.2-0.7,0.2-1.1,0.2c0-0.8-1-2.1,0.4-2.2C147.2,234.1,147.4,235.2,146.9,236.2z"/>
</svg>
