<?xml version="1.0" encoding="utf-8"?>
<!-- Generator: Adobe Illustrator 27.5.0, SVG Export Plug-In . SVG Version: 6.00 Build 0)  -->
<svg version="1.1" id="Layer_1" xmlns="http://www.w3.org/2000/svg" xmlns:xlink="http://www.w3.org/1999/xlink" x="0px" y="0px"
	 viewBox="0 0 731 436" style="enable-background:new 0 0 731 436;" xml:space="preserve">
<style type="text/css">
	.st0{clip-path:url(#SVGID_00000029725808106864838290000002967104695043352461_);}
	.st1{fill:#231F20;}
	.st2{fill:#FFFFFF;}
	.st3{fill:#EE1A92;}
	.st4{fill:#AFAFAF;}
	.st5{fill:#CCCCCC;}
	.st6{fill:#E6E6E6;}
	.st7{fill:#656565;}
	.st8{fill:#C0C0C0;}
	.st9{fill:#FCFBFC;}
	.st10{fill:#1D1D1D;}
	.st11{fill:none;stroke:#FFFFFF;}
	.st12{clip-path:url(#SVGID_00000012452205712630043030000011020938635112976768_);}
</style>
<g transform="translate(-595 -6044)">
	<g>
		<defs>
			<path id="SVGID_1_" d="M632,6044h657c20.4,0,37,16.6,37,37v362c0,20.4-16.6,37-37,37H632c-20.4,0-37-16.6-37-37v-362
				C595,6060.6,611.6,6044,632,6044z"/>
		</defs>
		<clipPath id="SVGID_00000170990063156801447300000000541430892359630775_">
			<use xlink:href="#SVGID_1_"  style="overflow:visible;"/>
		</clipPath>
		<g style="clip-path:url(#SVGID_00000170990063156801447300000000541430892359630775_);">
			<g transform="matrix(0.921, -0.391, 0.391, 0.921, 664.613, 6678.933)">
				<path class="st1" d="M326.5,215.3c253.6,0,505.8,0,758.1-0.3c12.8,0,16.5,2.9,16,16c-1.1,32.2-0.8,64.4,0,96.6
					c0.3,10.9-3.5,13-13.6,13c-184.4-0.3-368.8-0.4-553.2-0.3c-173,0-345.9,0.1-518.9,0.3c-11.7,0-14.9-2.9-14.6-14.6
					c0.5-32.2,0.8-64.4-0.3-96.6C-0.3,217.1,4,215,14.9,215C118.4,215.5,221.9,215.3,326.5,215.3z"/>
				<path class="st2" d="M1101.1,61.2c-10.4,51.9-58,78-109.1,60.7c-20.5-6.9-37.5-19.4-51.4-36.2c-17.6-20.8-34.9-41.5-52.4-62.3
					c-10.4-12.2-12.2-12.2-22.1,0c-17.6,21.8-34.3,44.2-52.7,65.5c-26.6,31.1-59.9,46.8-101.6,37.8c-43.1-9.3-68.4-51.6-55.6-94.2
					c6.1-20.8,17-38.6,30.6-55.3c24.5-30.3,49-60.7,74-90.7c5.1-6.1,5.1-9.8,0-16c-20.8-24.7-41.2-49.5-61.2-74.8
					c-14.9-18.6-28.2-38.6-32.2-62.5c-9.6-57.7,41.8-101.4,101.1-86.2c23.7,5.8,44.6,19.7,59.3,39.1c13.3,17,26.1,34.6,38.8,51.9
					c6.1,8.5,11.2,9,17.3,0c12.2-17.8,24.7-35.4,37.5-53c24.5-33.5,66.8-49.5,105.4-40.2c42.6,10.6,66.5,52.2,53.7,94.5
					c-6.1,20.5-17.6,38.6-30.6,55.3c-18.9,23.9-37.3,48.4-56.7,71.8c-6.1,7.4-6.7,12.2,0,20.2c25.3,28.7,49.9,57.8,74,87.3
					C1087.2-1.1,1104.8,25.3,1101.1,61.2z"/>
				<path class="st2" d="M2.1-247.7v-27.9c0.8-40.4,22.9-68.1,62-77.4c18.6-4.5,38-4.6,56.7-0.3c39.6,9,62.5,37.3,62.8,78.2
					c0.3,72.4,0,145,0.3,217.4c0,19.2-2.1,16.5,17,16.8c32.7,0.5,65.5-2.1,97.9,1.3c49.8,5.3,77.4,35.9,77.4,82.5
					c0,46.3-27.1,79-76.4,81.7c-75.3,4-150.9,4.8-225.9-0.5C27.7,120.3,2.4,88.3,2.1,42L2.1-247.7z"/>
				<path class="st3" d="M530.8-80.4c-87.5,16.5-160.7-34.3-173.5-119.2c-12-80.1,54.3-155.9,134.9-158.3
					c65.5-1.9,132.2,44.2,143.7,118.4C647.4-166.3,604.5-101.6,530.8-80.4z"/>
				<path class="st2" d="M595-77.2c5.6,1.1,2.1,4,1.3,5.9C579-11.4,556.1,46.3,530.8,103.2c-2,4.2-4.4,8.2-7.2,12
					c-14.1,18.4-36.7,18.1-50.6-0.3c-7.2-9.6-11.7-20.5-16.5-31.4c-23.1-52.7-43.4-106.4-60.1-165.2c12.2,12.2,22.4,21.8,34.3,29.3
					c3.5,2.1,4,6.4,5.3,9.8c5.6,16,11.2,31.9,17,47.9c3.5,9.6,10.1,13.8,19.7,10.4c9.8-3.5,9.8-11.2,6.7-20
					c-3.7-9.8-6.9-20-11.2-31.7C518.3-27.1,560.4-40.4,595-77.2z"/>
				<path class="st2" d="M634.3,267.1c1.3,7.2,5.1,9.3,11.4,7.4c3.5-1.1,7.5-1.1,7.5,3.7c0,4.5-3.5,4.3-7.2,4.3
					c-6.4,0-16.5-5.6-14.9,9c0.5,5.6,1.1,8.2,7.5,8c5.9-0.3,11.7,2.1,17.6-0.3c2.9-1.1,6.1-1.3,6.7,2.9c0.5,4.8-2.7,5.6-6.4,5.3
					c-7.7-0.3-15.2-0.8-22.9-0.8c-5.3,0-7.5-2.1-8.2-7.4c-0.8-6.7-0.8-13.5,0-20.2c2.4-27.4,2.1-27.1,29-28.2c3.7,0,5.9,0.8,6.1,4.5
					c0,4-2.7,5.1-6.1,4.8c-7.7-0.5-15.4-1.3-22.6,4.5C632,264.2,633,265.5,634.3,267.1z"/>
				<path class="st2" d="M810.8,295.3c0.5,3.2,2.9,6.7-0.8,8.2c-3.5,1.3-5.1-2.1-5.1-5.3v-41.8c0-1.7,0.5-3.3,1.6-4.5
					c2.7-2.9,25.5-1.9,29,1.6c7.7,7.5,8.2,15.2,0.5,22.9c-7.7,7.5-0.3,12.8,2.7,18.6c1.3,2.7,5.3,6.1,0.8,8.2
					c-3.5,1.9-4.5-2.7-5.9-5.1c-2.2-4.1-4-8.4-5.6-12.8c-2.1-6.7-6.1-7.2-12.5-4.3C811.8,285.2,813.2,290.3,810.8,295.3z"/>
				<path class="st2" d="M278.6,287.9c-4,10.1-7.5,19.7-20.5,17.8c-11.4-1.6-18.6-10.9-19.2-24.7c-0.5-15.2,4.5-24.7,14.6-27.9
					c8.5-2.7,15.7-2.1,20.5,7.7C281.8,269.3,281.5,278.1,278.6,287.9z"/>
				<path class="st2" d="M140.8,252c10.9,4.3,12.2,12.8,10.4,21.3c-1.9,8.8-10.1,10.1-17.3,9.8c-11.7-0.8-14.4,4-11.4,14.4
					c0.8,2.7,2.9,6.4-1.9,6.9c-3.2,0.3-5.3-3.2-4.5-6.4c2.7-13,0.3-26.1,1.1-39.4c0.3-6.1,2.9-8.2,8.8-7.7
					C130.7,251.4,135.2,251.4,140.8,252z"/>
				<path class="st2" d="M55.1,288.4c-0.3,11.7,8,7.7,13.3,8.2c5.6,0.5,8.5-3.5,8.8-8.8c0.3-10.1,0.3-20.2,0.3-30.3
					c0-3.5,0.3-8,4.3-8c4.8,0.3,3.2,5.1,2.7,8.2c-1.9,9.6-2.1,19.4-0.5,29c2.4,15.4-11.4,13.8-18.9,16c-6.8,1.9-13.8-2-15.8-8.7
					c-0.2-0.8-0.4-1.6-0.5-2.4c-1.3-12.2-2.4-24.5-2.1-36.7c0-6.1,4.3-5.6,7.7,0c2.1,8.8,0,17,2.4,25.5
					C56.8,283.2,56.3,285.9,55.1,288.4z"/>
				<path class="st2" d="M510.9,295.6c-0.3-8.2-0.8-15.4-0.5-22.6c0.3-7.2-0.5-13.3-9.8-15.2c6.7-6.7,14.9-1.3,21-5.9
					c1.6-1.3,3.2,2.1,3.7,4c0.5,2.4-0.5,4.8-2.7,4.8c-10.4-0.8-6.9,6.9-7.2,12c-0.3,5.9-0.3,11.7,0,17.8c0,4.3-1.9,10.1,6.7,7.7
					c2.7-0.8,3.5,2.1,3.7,4c0.3,2.9-1.3,4.8-4.5,4.8h-17.6C502.4,300.4,511.7,302.5,510.9,295.6z"/>
				<path class="st2" d="M951.5,263.4c1.3-4.5-1.1-9.6,4.5-12.8c7.2,16.5,12,34.1,20.5,49.8c0.8,1.6,1.1,3.2-0.5,4.5
					c-2.4,1.6-4,0.3-5.3-1.3c-9-9.8-23.9-9.3-33,2.9c-2.1-8,4.3-12.5,5.3-18.9c1.1-1.9,2.1-2.4,4.3-2.9c14.4-0.3,14.4-0.5,4.8-17.8
					C951.5,265.8,951.3,264.6,951.5,263.4z"/>
				<path class="st2" d="M885.3,274.1c5.3,4.3,15.4-5.1,15.4,3.7c0,9.8-10.1,1.6-15.4,4c-2.1,1.1-5.3-0.5-6.4,3.7
					c1.9,3.7,2.4,6.4,0.5,10.6c7.2,5.1,15.2,4.5,23.1,3.5c3.5-0.5,8.5-2.9,8.2,3.5c0,5.6-4.8,4.5-8.8,4.3c-0.5,0-0.8-0.3-1.3-0.3
					c-29.5-1.6-29.5-1.6-27.4-32.2c0.8-1.9,1.9-2.4,3.7-2.9C879.9,271.8,882.8,272.5,885.3,274.1z"/>
				<path class="st2" d="M417.8,305.7c-6.7-2.9-8.5-6.1-5.3-13.3c4.5-9.6,2.7-20.8,2.1-31.1c0-4.5-0.8-8.2,5.6-10.4
					C420.9,269.5,423.6,287.6,417.8,305.7z"/>
				<path class="st2" d="M743.4,295.1c-8.5-9.3-7.5-20-3.7-30.9c2.9-8.8,10.4-12.2,18.9-12.2c7.5,0,10.9,7.2,15.4,12
					c1.6,1.9,1.1,5.1-1.6,6.7c-2.7,1.6-3.2-1.1-4.5-2.7c-8.5-10.9-15.2-10.4-24.5,2.4c0.3,3.7,0.5,6.7-1.1,10.4
					c0.6,3.9,1.7,7.8,3.2,11.4C745.3,293.5,744.8,294,743.4,295.1z"/>
				<path class="st2" d="M559.8,281c1.9,3.7,2.7,7.2,4.3,9.8c2.9,4.8,6.7,9.3,13,8.5c6.1-0.8,9.6-4.8,10.9-10.9
					c0.5-2.4,0.3-5.3,5.1-5.3c2.7,8.2,0.5,15.7-6.7,20.5c-6.9,4.8-14.6,3.2-21-2.7c-5.3-4.8-8-10.9-9-18.6
					C557.2,280.7,558,280.2,559.8,281z"/>
				<path class="st2" d="M385.3,271.7c-0.5-5.1-0.8-9.8-1.3-14.4c-0.5-3.7,1.1-5.9,4.3-6.4c2.4-0.3,6.1-0.5,6.4,2.4
					c1.1,11.7,7.5,21.3,12.8,31.1c0.8,1.3-0.3,3.7-0.5,6.4c-7.5-6.4-8.5-16.5-17.6-21c-0.8,0.6-1.6,1.3-2.1,2.1
					C386.5,272.2,385.8,272.1,385.3,271.7z"/>
				<path class="st2" d="M558.5,269.3c0.3-10.4,6.4-14.6,15.7-16.8c9.3-2.1,12,5.9,17.3,9.8c2.7,2.1,2.9,5.6,0.5,7.7
					c-4.3,3.5-4.3-1.6-5.9-3.5c-6.1-8.5-13.3-8.2-23.1,1.3C561.4,269.5,560.6,269.8,558.5,269.3z"/>
				<path class="st2" d="M202.2,259.4c-3.5-1.3-5.6,9-8.8-0.5c-0.3-1.1-1.9-2.4-2.7-2.1c-5.3,1.1-12.8,2.9-12.2-4.5
					c0.3-4.5,8.8-1.1,13.6-1.6c4.5-0.5,9.3-0.3,13.8-0.3c4,0,9.6-5.6,11.2,2.1c1.9,8.8-6.7,4.8-11.4,6.9
					C204.1,259.7,203.6,260,202.2,259.4z"/>
				<path class="st2" d="M1036.4,266.6c0-4.5,2.4-7.7,5.3-10.1c1.3-1.1,4.3-2.1,5.6-1.6c2.9,1.9-0.8,4.5,0,7.4
					c1.1,2.4,1.6,5.1,1.6,7.7v6.1c-0.3,7.7,0.8,14.6-0.5,22.1c-0.3,2.9,1.1,6.4-2.4,6.7c-4,0.3-4.5-2.7-4.5-5.9v-29.5
					C1040.1,267.4,1038.5,267.4,1036.4,266.6z"/>
				<path class="st2" d="M878.6,273.3c-1.4,0.4-2.8,0.6-4.3,0.5c-0.7-4.9-1.1-9.9-1.1-14.9c0-3.2,1.3-5.9,5.1-5.9
					c8.2-0.3,16.8,0.8,25-1.9c2.9-0.8,4.8,1.6,5.1,4.3c0.3,3.2-2.1,4.5-4.8,4.5c-4.3,0.3-8.2,0-13.6,0
					C881.5,261,882.3,268.2,878.6,273.3z"/>
				<path class="st2" d="M750.9,298.5c14.4,3.2,17-6.9,21.3-19.2c4.5,10.9,2.4,17.8-2.9,22.6c-7.2,6.4-15.4,5.1-23.4-1.9
					C746.6,298.3,748.2,297.7,750.9,298.5z"/>
				<path class="st2" d="M312.4,269.8c1.9,4.3,1.6,6.9,2.1,9.8c0.3,2.1-0.5,5.9,2.4,6.1c3.5,0.3,3.5-3.7,5.6-6.4
					c1.6-1.3,2.7-1.6,4.5-0.8c0.3,8.2-6.4,13.6-8.2,20.8c-1.1,3.7-6.4,5.1-6.7,0C311.9,289,306.3,279.1,312.4,269.8z"/>
				<path class="st2" d="M1035.1,266.6c1.9,0,3.8,0.5,5.6,1.3c-6.7-0.5-5.3,4.8-5.6,8.8c-0.1,4.7-1.7,9.3-4.5,13
					c-2.7,3.5-6.9,2.9-9.8,0c-3.2-3.2-0.3-4,2.4-5.9C1029.2,279.6,1030.5,272.5,1035.1,266.6z"/>
				<path class="st2" d="M328.1,278.1c-1.1,0.8-2.1,0.8-4,0.5c3.5-4.8-0.3-13.8,9.3-17c-1.3,8.5,9.3,13.3,5.6,22.6
					C333.1,284.4,334.7,275.1,328.1,278.1z"/>
				<path class="st2" d="M350.2,290.8c-0.7,3.1-1.1,6.4-1.1,9.6c-6.7-2.4-10.6-5.3-5.3-14.1c3.2-5.6,2.1-13.6,3.5-21.6
					c1.6-1.6,2.7-1.3,4,0.5c0,6.1-0.5,11.2-0.8,17.6C351.2,285.8,351.5,287.9,350.2,290.8z"/>
				<path class="st2" d="M384.5,272.5c0.4-0.8,1.3-1.2,2.1-1.1c1.1-0.5,1.3-1.1,2.4-0.8c0.5,0.8,0.5,0.5,0.3,0.5
					c-1.7,9-1.8,18.1-0.3,27.1c0.5,2.4,1.3,5.3-2.1,5.6c-3.5,0.3-3.5-3.2-3.5-5.3C383.7,290.3,384,281.8,384.5,272.5z"/>
				<path class="st4" d="M878.6,274.3c0.3-6.9-3.7-16.5,9.8-14.6c-1.6,4-3.2,8-2.1,13.6C883.9,275.7,881.5,275.9,878.6,274.3z"/>
				<path class="st4" d="M278.6,288.4c-0.8-8,0.8-16.8-3.7-25.8C285,267.9,286.3,275.1,278.6,288.4z"/>
				<path class="st5" d="M350.2,292.2c-0.5-2.5-0.6-5-0.3-7.5c8.8-4.3,1.9-12.8,6.4-18.4c1.9,10.1,1.3,19.7-2.1,28.2
					C352,299.6,352.3,292.7,350.2,292.2z"/>
				<path class="st2" d="M313.7,268.2c-5.1,0.8-6.7-2.4-6.9-10.6c0-3.2,0-6.1,3.2-7.2c2.4-0.8,3.5,1.6,3.5,3.7
					C313.7,258.1,313.7,262.4,313.7,268.2z"/>
				<path class="st6" d="M55.1,281.5c-2.7-8-2.7-16-1.1-24.7c2.9-0.5,4.8,0.5,5.1,4C55.9,267.9,60.4,275.4,55.1,281.5z"/>
				<path class="st2" d="M201.7,259.7c0.5-1.1,1.3-1.1,2.4-0.5c-1.9,14.4,3.5,28.7-3.7,42.6c-1.3-0.3-1.6-0.8-1.3-1.9
					C204.4,286.6,200.4,273.5,201.7,259.7z"/>
				<path class="st2" d="M351.5,265.3c-1.3,0.3-2.4-0.3-4-1.3c-1.1-5.3-1.9-13,2.7-13.6c8.2-1.1,3.2,5.3,2.7,9
					C352.8,261.3,352.3,262.6,351.5,265.3z"/>
				<path class="st2" d="M951,263.4c0.5-0.8,1.1,0.3,1.1,0.8c4.8,8.8,2.9,15.7-5.1,22.1c-1,0.7-2.3,0.9-3.5,0.5
					C943,278.3,949.1,271.9,951,263.4z"/>
				<path class="st2" d="M199.3,298v3.2c-2.1,2.9-4.8,3.5-5.3,0c-1.5-7-0.6-14.3,2.4-20.8C200.1,285.8,198,291.6,199.3,298z"/>
				<path class="st7" d="M811.3,296.1c-1.6-5.3-3.7-10.9,2.4-14.9C818.2,287.1,815.8,291.6,811.3,296.1z"/>
				<path class="st8" d="M53.8,282.6c5.3-6.4,0.8-13.8,4.5-20.2c-0.3,8.2,4,17.8-2.7,26.6C54.3,287.4,54,285.5,53.8,282.6z"/>
				<path class="st2" d="M1007.7,298.5c0.3,3.5-1.1,5.6-4.3,5.3c-2.7,0-3.2-2.4-2.9-4.5c0.1-5.1,0.7-10.2,1.9-15.2
					c3.7,2.1,3.2,5.6,3.7,9.8C1006.4,295.6,1007,297.1,1007.7,298.5z"/>
				<path class="st2" d="M1015.1,273c2.1,3.2,4,6.4,3.2,7.7c-2.4,4.3-4.8-4.3-8.8,0.3c-1.3,0.8-1.9,0.5-1.9-0.3
					C1015.1,281.2,1008.7,272.2,1015.1,273z"/>
				<path class="st4" d="M1047.3,277.5c-0.4-1.8-0.6-3.7-0.5-5.6c1.1-1.6,2.1-2.1,4-1.3c1.1,9.3,2.7,17.8-0.8,27.4
					C1046.2,292.7,1048.4,285.5,1047.3,277.5z"/>
				<path class="st5" d="M1046.8,277.5c4.3,5.1,1.3,12.2,2.4,20.2c0,1.3-0.3,1.3-0.3,1.3C1043.9,293,1047.6,285.5,1046.8,277.5z"/>
				<path class="st4" d="M879.7,296.7c-1.1-2.7-1.3-5.3-1.3-9.3C885,288.7,885.5,292.2,879.7,296.7z"/>
				<path class="st2" d="M1007.1,271.9c0.5,0.3,0.5,1.9,1.1,2.4c0.6,8,0.7,16,0.3,23.9c-1.1,0.5-1.9-0.3-2.9-1.9
					c-2.1-5.9-1.1-11.2-1.1-17.8C1005.5,275.1,1006.1,273.5,1007.1,271.9z"/>
				<path class="st8" d="M742.6,281.2c-1.1-2.9-1.1-5.9-0.3-9.6C746.9,274.3,748,277.5,742.6,281.2z"/>
				<path class="st2" d="M1005.5,274.9c-3.5-5.3-5.6-10.1-2.9-15.4c0.3-0.3,4.5,1.9,5.9,4C1010.9,267.4,1016.4,273.8,1005.5,274.9z"
					/>
				<path class="st2" d="M198.5,263.2c0.5,5.1,1.3,9-1.1,13.3C193.2,267.4,193.2,267.4,198.5,263.2z"/>
				<path class="st8" d="M1017.8,273.8c-1.1,0-1.9-0.5-1.9-0.8c1.9-2.4-1.6-6.9,2.9-6.9c2.7,0,2.9,3.5,2.7,6.9
					C1020.2,273.8,1019.6,273.8,1017.8,273.8z"/>
				<path class="st8" d="M313.7,270.1C314,269.5,314,269.8,313.7,270.1c0.3,0-0.3-0.5,0-1.1c2.4-1.1,2.7-5.1,5.9-3.7
					c0.6,0.4,1,1.1,1.1,1.9c0,3.5-2.4,3.7-5.6,4C314,271.1,313.5,270.3,313.7,270.1z"/>
				<path class="st2" d="M560.4,280.4c-1.1,1.1-1.9,1.1-3.5,1.1c-0.8-1.9-0.8-4-0.5-6.7c0.7-0.9,1.8-1.4,2.9-1.3
					C560.4,275.7,560.7,278.1,560.4,280.4z"/>
				<path class="st5" d="M1051.3,270.6c-1.1,0.8-2.1,0.8-3.7,0.8c-0.8-2.1-0.8-4-0.5-6.9C1051,264,1051.6,266.6,1051.3,270.6z"/>
				<path class="st2" d="M560.6,273.3c-0.3,0.5-1.3,0.5-1.3,0.5h-1.9c-0.5-1.3-0.3-2.7,0-4.5c1.3-0.5,2.6-0.6,4-0.5
					C562,270.1,561.4,271.4,560.6,273.3z"/>
				<path class="st2" d="M1004.2,273c0.8,6.9,1.1,13.6,1.3,22.1c-4.3-3.5-2.7-10.6-2.9-19.2C1002.9,274.1,1003.7,272.7,1004.2,273z"
					/>
				<path class="st2" d="M634.6,265.5c-0.5,3.7-1.1,6.7-3.5,5.3c-2.4-1.3-1.9-4-0.8-6.7C631.9,263.7,633.7,264.2,634.6,265.5z"/>
				<path class="st4" d="M1002.3,273c0,0.7-0.2,1.5-0.5,2.1c-0.3-0.3-0.8-0.5-0.5-0.8C1001.5,273.8,1001.9,273.3,1002.3,273z"/>
				<path class="st2" d="M751.7,298.3c-1.1,0.8-2.7,0.8-5.3,0.8c-1.1,0-2.1-0.3-2.4-0.8c0.3-1.1,1.1-1.6,2.4-2.7
					C748.4,295.8,750.3,296.7,751.7,298.3z"/>
				<path class="st5" d="M348.8,301.5c0.5,0.3,1.9,0.8,1.9,1.1c-0.5,1.1-1.1,1.1-1.6-0.5C348.8,301.2,349.1,301.5,348.8,301.5z"/>
				<path class="st2" d="M745,293.8c1.3-0.3,1.9,0,2.4,0.8c-0.3,0.8-1.1,1.3-2.4,2.7c-1.6,0.3-1.9,0-2.4-1.1
					C742.9,295.1,743.4,294.8,745,293.8z"/>
				<path class="st8" d="M1021,273.8c0.3,0.3,0.8,0.5,1.1,1.1C1021.6,274.6,1021.2,274.2,1021,273.8z"/>
				<path class="st1" d="M810.5,263.7c6.4-9,14.6-6.4,22.1-4c3.5,1.1,3.7,5.9,1.9,9c-4,7.2-10.6,4.5-17,4.8
					C810.5,273.5,810.2,269.8,810.5,263.7z"/>
				<path class="st1" d="M255.2,295.3c-1.3-0.5-2.5-1.4-3.2-2.7c0-0.9-0.7-1.7-1.6-1.9c-8.2-6.7-6.1-14.9-3.5-22.9
					c1.9-5.9,6.9-9.6,13.6-9.6c7.2,0,10.1,5.6,12,11.2c4.8,13-0.5,25-13.3,29.3C256.8,298.3,256.5,296.9,255.2,295.3z"/>
				<path class="st7" d="M254.6,296.1c2.1-2.1,2.7-0.5,3.5,1.9C256.5,299.1,255.2,298.5,254.6,296.1z"/>
				<path class="st7" d="M250.1,291.6c0-1,0.3-2,0.8-2.9c0.7,0.5,1.2,1.3,1.3,2.1C251.5,291.9,251.2,291.9,250.1,291.6z"/>
				<path class="st1" d="M123.2,270.9c1.9-4.8-3.7-11.7,4-12c6.1,0,14.1-3.7,18.1,4.3c2.1,4,1.1,9.3-3.5,10.9
					C135.7,276.2,128.5,280.4,123.2,270.9z"/>
				<path class="st1" d="M946.2,287.9c2.9-7.5,6.7-13.6,5.9-21.8c9.6,2.9,9.6,12.8,12.8,20.5c1.3,3.2-2.1,3.7-4.8,3.5
					C955.5,289.2,951,289.2,946.2,287.9z"/>
				<path class="st9" d="M390.9,271.1c-0.9,0.4-1.9,0.6-2.9,0.5c0-2.1-2.7-5.6,1.1-5.9C391.7,265.5,392.2,268.5,390.9,271.1z"/>
			</g>
		</g>
	</g>
	<g transform="translate(595 6048)">
		<path class="st10" d="M37,0h657c20.4,0,37,16.6,37,37v358c0,20.4-16.6,37-37,37H37c-20.4,0-37-16.6-37-37V37C0,16.6,16.6,0,37,0z"
			/>
		<path class="st11" d="M37,0.5h657c20.2,0,36.5,16.3,36.5,36.5v358c0,20.2-16.3,36.5-36.5,36.5H37c-20.2,0-36.5-16.3-36.5-36.5V37
			C0.5,16.8,16.8,0.5,37,0.5z"/>
	</g>
	<g transform="translate(848.695 6286.385)">
		<path class="st1" d="M-151.4-119.2c27.5,0,54.8,0,82.1,0c1.4,0,1.8,0.3,1.7,1.7c-0.1,3.5-0.1,7,0,10.5c0,1.2-0.4,1.4-1.5,1.4
			c-20,0-39.9,0-59.9,0c-18.7,0-37.5,0-56.2,0c-1.3,0-1.6-0.3-1.6-1.6c0.1-3.5,0.1-7,0-10.5c0-1.3,0.4-1.6,1.6-1.6
			C-173.9-119.2-162.7-119.2-151.4-119.2z"/>
		<path class="st2" d="M-67.5-135.9c-1.1,5.6-6.3,8.4-11.8,6.6c-2.2-0.8-4.1-2.1-5.6-3.9c-1.9-2.2-3.8-4.5-5.7-6.7
			c-1.1-1.3-1.3-1.3-2.4,0c-1.9,2.4-3.7,4.8-5.7,7.1c-2.9,3.4-6.5,5.1-11,4.1c-4.3-0.9-7.1-5.1-6.2-9.4c0.1-0.3,0.1-0.6,0.2-0.8
			c0.7-2.2,1.8-4.2,3.3-6c2.7-3.3,5.3-6.6,8-9.8c0.5-0.4,0.5-1.1,0.2-1.6c0-0.1-0.1-0.1-0.2-0.2c-2.2-2.7-4.5-5.4-6.6-8.1
			c-1.7-1.9-2.9-4.3-3.5-6.8c-1-6.3,4.5-11,11-9.3c2.6,0.6,4.8,2.1,6.4,4.2c1.4,1.8,2.8,3.7,4.2,5.6c0.7,0.9,1.2,1,1.9,0
			c1.3-1.9,2.7-3.8,4.1-5.7c2.6-3.6,7.1-5.3,11.4-4.4c4.3,1,7,5.3,6,9.6c-0.1,0.2-0.1,0.5-0.2,0.7c-0.7,2.2-1.8,4.2-3.3,6
			c-2,2.6-4,5.2-6.1,7.8c-0.6,0.5-0.7,1.4-0.2,2c0.1,0.1,0.1,0.1,0.2,0.2c2.7,3.1,5.4,6.3,8,9.5C-69-142.6-67.1-139.8-67.5-135.9z"
			/>
		<path class="st2" d="M-186.5-169.3v-3c-0.2-4.1,2.7-7.7,6.7-8.4c2-0.5,4.1-0.5,6.1,0c4.1,0.7,7,4.3,6.8,8.5c0,7.8,0,15.7,0,23.5
			c0,2.1-0.2,1.8,1.8,1.8c3.5,0.1,7.1-0.2,10.6,0.1c5.4,0.6,8.4,3.9,8.4,8.9c0,5-2.9,8.6-8.3,8.8c-8.1,0.5-16.3,0.5-24.5-0.1
			c-5-0.4-7.8-3.9-7.8-8.9L-186.5-169.3z"/>
		<path class="st3" d="M-129.3-151.2c-9.5,1.8-17.4-3.7-18.8-12.9c-1.3-8.7,5.9-16.9,14.6-17.1c7.7-0.2,14.3,5.3,15.6,12.8
			C-116.6-160.5-121.3-153.5-129.3-151.2z"/>
		<path class="st2" d="M-122.3-150.9c0.6,0.1,0.2,0.4,0.1,0.6c-1.9,6.5-4.3,12.8-7.1,18.9c-0.2,0.5-0.5,0.9-0.8,1.3
			c-1,1.5-3,1.9-4.5,0.9c-0.4-0.3-0.7-0.6-1-1c-0.7-1.1-1.3-2.2-1.8-3.4c-2.6-5.8-4.8-11.8-6.5-17.9c1.1,1.2,2.4,2.3,3.7,3.2
			c0.4,0.2,0.4,0.7,0.6,1.1c0.6,1.7,1.2,3.5,1.8,5.2c0.2,0.8,1,1.4,1.8,1.2c0.1,0,0.2-0.1,0.3-0.1c1.1-0.4,1.1-1.2,0.7-2.2
			c-0.4-1.1-0.7-2.2-1.2-3.4C-131-145.3-125.7-147-122.3-150.9z"/>
		<path class="st2" d="M-118.1-113.6c0.1,0.8,0.5,1,1.2,0.8c0.4-0.1,0.8-0.1,0.8,0.4c0,0.5-0.4,0.5-0.8,0.5c-0.7,0-1.8-0.6-1.6,1
			c0.1,0.6,0.1,0.9,0.8,0.9c0.6,0,1.3,0.2,1.9,0c0.3-0.1,0.7-0.1,0.7,0.3c0.1,0.5-0.3,0.6-0.7,0.6c-0.8,0-1.6-0.1-2.5-0.1
			c-0.6,0-0.8-0.2-0.9-0.8c-0.1-0.7-0.1-1.5,0-2.2c0.3-3,0.2-2.9,3.1-3.1c0.4,0,0.6,0.1,0.7,0.5c0,0.4-0.3,0.5-0.7,0.5
			c-0.8-0.2-1.7,0-2.4,0.5C-118.3-113.9-118.2-113.7-118.1-113.6z"/>
		<path class="st2" d="M-98.9-110.5c0.1,0.3,0.3,0.7-0.1,0.9c-0.4,0.1-0.5-0.2-0.5-0.6v-4.5c0-0.2,0.1-0.4,0.2-0.5
			c1-0.3,2.1-0.2,3.1,0.2c0.7,0.5,0.9,1.4,0.4,2.1c-0.1,0.1-0.2,0.2-0.3,0.3c-0.8,0.8,0,1.4,0.3,2c0.1,0.3,0.6,0.7,0.1,0.9
			c-0.4,0.2-0.5-0.3-0.6-0.5c-0.2-0.4-0.4-0.9-0.6-1.4c-0.2-0.7-0.7-0.8-1.4-0.5C-98.8-111.6-98.7-111.1-98.9-110.5z"/>
		<path class="st2" d="M-156.6-111.3c-0.4,1.1-0.8,2.1-2.2,1.9c-1.3-0.2-2.2-1.4-2.1-2.7c-0.1-1.6,0.5-2.7,1.6-3
			c0.8-0.4,1.7-0.1,2.1,0.7c0,0.1,0.1,0.1,0.1,0.2C-156.4-113.5-156.2-112.3-156.6-111.3z"/>
		<path class="st2" d="M-171.5-115.2c0.9,0.3,1.4,1.3,1.1,2.3c0,0,0,0,0,0.1c-0.2,1-1.1,1.1-1.9,1.1c-1.3-0.1-1.6,0.4-1.2,1.6
			c0.1,0.3,0.3,0.7-0.2,0.7c-0.3,0-0.5-0.2-0.5-0.5c0-0.1,0-0.1,0-0.2c0.1-1.4,0.2-2.8,0.1-4.3c0-0.7,0.3-0.9,1-0.8
			C-172.6-115.3-172.1-115.3-171.5-115.2z"/>
		<path class="st2" d="M-180.8-111.3c0,1.3,0.9,0.8,1.4,0.9c0.6,0.1,0.9-0.4,1-1c0-1.1,0-2.2,0-3.3c0-0.4,0-0.9,0.5-0.9
			c0.5,0,0.3,0.5,0.3,0.9c-0.2,1-0.2,2.1-0.1,3.1c0.3,1.7-1.2,1.5-2,1.7c-0.7,0.2-1.5-0.2-1.7-0.9c0-0.1,0-0.2,0-0.3
			c-0.2-1.3-0.2-2.6-0.2-4c0-0.7,0.5-0.6,0.8,0c0.2,1,0,1.8,0.3,2.8C-180.6-111.8-180.7-111.5-180.8-111.3z"/>
		<path class="st2" d="M-131.4-110.5c0-0.9-0.1-1.7-0.1-2.4s-0.1-1.4-1.1-1.6c0.7-0.7,1.6-0.1,2.3-0.6c0.2-0.1,0.3,0.2,0.4,0.4
			c0.1,0.3-0.1,0.5-0.3,0.5c-1.1-0.1-0.7,0.7-0.8,1.3c0,0.6,0,1.3,0,1.9c0,0.5-0.2,1.1,0.7,0.8c0.3-0.1,0.4,0.2,0.4,0.4
			c0,0.2-0.1,0.5-0.3,0.5c0,0-0.1,0-0.1,0h-1.9C-132.3-110-131.3-109.7-131.4-110.5z"/>
		<path class="st2" d="M-83.7-114c0.1-0.5-0.1-1,0.5-1.4c0.8,1.8,1.3,3.7,2.2,5.4c0.1,0.2,0.1,0.4-0.1,0.5c-0.3,0.2-0.4,0-0.6-0.1
			c-0.8-0.9-2.2-1-3.2-0.2c-0.2,0.1-0.3,0.3-0.4,0.5c-0.2-0.9,0.5-1.4,0.6-2c0.1-0.2,0.3-0.3,0.5-0.3c1.6,0,1.6-0.1,0.5-1.9
			C-83.7-113.7-83.7-113.8-83.7-114z"/>
		<path class="st2" d="M-90.9-112.8c0.6,0.5,1.7-0.5,1.7,0.4c0,1.1-1.1,0.2-1.7,0.4c-0.2,0.1-0.6-0.1-0.7,0.4
			c0.2,0.3,0.2,0.8,0.1,1.2c0.8,0.5,1.7,0.6,2.5,0.4c0.4-0.1,0.9-0.3,0.9,0.4c0,0.6-0.5,0.5-1,0.5c-0.1,0-0.1,0-0.1,0
			c-3.2-0.2-3.2-0.2-3-3.5c0.1-0.2,0.2-0.3,0.4-0.3C-91.5-113.1-91.1-113-90.9-112.8z"/>
		<path class="st2" d="M-141.5-109.4c-0.7-0.3-0.9-0.7-0.6-1.4c0.4-1.1,0.4-2.2,0.2-3.4c0-0.5-0.1-0.9,0.6-1.1
			C-141.2-113.3-140.9-111.3-141.5-109.4z"/>
		<path class="st2" d="M-106.2-110.5c-0.8-0.9-0.9-2.2-0.4-3.3c0.3-0.9,1.1-1.4,2-1.3c0.8,0,1.2,0.8,1.7,1.3
			c0.2,0.2,0.1,0.5-0.1,0.7c0,0,0,0-0.1,0c-0.3,0.2-0.3-0.1-0.5-0.3c-0.9-1.2-1.6-1.1-2.7,0.3c0.1,0.4,0,0.8-0.1,1.1
			c0.1,0.4,0.2,0.8,0.3,1.2C-106-110.7-106.1-110.7-106.2-110.5z"/>
		<path class="st2" d="M-126.1-112.1c0.2,0.4,0.3,0.8,0.5,1.1c0.3,0.5,0.7,1,1.4,0.9c0.6-0.1,1.1-0.6,1.2-1.2c0.1-0.3,0-0.6,0.5-0.6
			c0.3,0.8,0,1.8-0.7,2.2c-0.7,0.5-1.7,0.4-2.3-0.3c-0.6-0.5-0.9-1.2-1-2C-126.4-112.1-126.3-112.2-126.1-112.1z"/>
		<path class="st2" d="M-145-113.1c-0.1-0.5-0.1-1.1-0.1-1.6c-0.1-0.3,0.1-0.6,0.4-0.7c0,0,0.1,0,0.1,0c0.3,0,0.7-0.1,0.7,0.3
			c0.2,1.2,0.7,2.4,1.4,3.4c0.1,0.1,0,0.4-0.1,0.7c-0.8-0.7-0.9-1.8-1.9-2.3c-0.1,0.1-0.2,0.1-0.2,0.2C-144.9-113-145-113-145-113.1
			z"/>
		<path class="st2" d="M-126.3-113.3c0-1.1,0.7-1.6,1.7-1.8s1.3,0.6,1.9,1.1c0.2,0.2,0.3,0.5,0.1,0.7c0,0-0.1,0.1-0.1,0.1
			c-0.5,0.4-0.5-0.2-0.6-0.4c-0.7-0.9-1.4-0.9-2.5,0.1C-125.9-113.3-126.1-113.3-126.3-113.3z"/>
		<path class="st2" d="M-164.9-114.4c-0.4-0.1-0.6,1-1-0.1c0-0.1-0.2-0.3-0.3-0.2c-0.6,0.1-1.4,0.3-1.3-0.5c0-0.5,1-0.1,1.5-0.2
			c0.5,0,1,0,1.5,0c0.4,0,1-0.6,1.2,0.2c0.2,1-0.7,0.5-1.2,0.7C-164.6-114.4-164.7-114.4-164.9-114.4z"/>
		<path class="st2" d="M-74.5-113.6c0-0.4,0.2-0.8,0.6-1.1c0.2-0.1,0.4-0.2,0.6-0.2c0.3,0.2-0.1,0.5,0,0.8c0.1,0.3,0.2,0.5,0.2,0.8
			v0.7c0,0.8,0,1.6-0.1,2.4c0,0.3,0.1,0.7-0.3,0.7c-0.4,0-0.5-0.3-0.5-0.6v-3.2C-74.1-113.5-74.3-113.5-74.5-113.6z"/>
		<path class="st2" d="M-91.6-112.9c-0.1,0-0.3,0.1-0.5,0.1c-0.1-0.5-0.1-1.1-0.1-1.6c0-0.3,0.1-0.6,0.5-0.6c0.9,0.1,1.8,0,2.7-0.2
			c0.3-0.1,0.5,0.2,0.5,0.5c0,0.3-0.2,0.5-0.5,0.5c-0.5,0-0.9,0-1.5,0C-91.3-114.2-91.2-113.4-91.6-112.9z"/>
		<path class="st2" d="M-105.4-110.2c1.6,0.3,1.8-0.7,2.3-2.1c0.5,0.8,0.4,1.8-0.3,2.5c-0.7,0.6-1.9,0.6-2.5-0.2c0,0,0,0,0,0
			C-105.9-110.2-105.7-110.2-105.4-110.2z"/>
		<path class="st2" d="M-152.9-113.3c0.1,0.3,0.2,0.7,0.2,1.1c0,0.2-0.1,0.6,0.3,0.7c0.4,0,0.4-0.4,0.6-0.7c0.1-0.1,0.3-0.2,0.5-0.1
			c0,0.9-0.7,1.5-0.9,2.2c-0.1,0.4-0.7,0.5-0.7,0C-153-111.2-153.6-112.3-152.9-113.3z"/>
		<path class="st2" d="M-74.6-113.6c0.2,0,0.4,0.1,0.6,0.1c-0.7-0.1-0.6,0.5-0.6,1c0,0.5-0.2,1-0.5,1.4c-0.2,0.3-0.7,0.3-1,0.1
			c0,0-0.1-0.1-0.1-0.1c-0.3-0.3,0-0.4,0.3-0.6C-75.3-112.2-75.1-113-74.6-113.6z"/>
		<path class="st2" d="M-151.2-112.4c-0.1,0.1-0.3,0.1-0.4,0.1c0.4-0.5,0-1.5,1-1.8c-0.1,0.9,1,1.4,0.6,2.4
			C-150.7-111.7-150.5-112.7-151.2-112.4z"/>
		<path class="st2" d="M-148.8-111c-0.1,0.3-0.1,0.7-0.1,1c-0.7-0.3-1.2-0.6-0.6-1.5c0.2-0.8,0.4-1.5,0.4-2.3
			c0.2-0.2,0.3-0.1,0.4,0.1c0,0.7-0.1,1.2-0.1,1.9C-148.7-111.6-148.7-111.3-148.8-111z"/>
		<path class="st2" d="M-145.1-113c0-0.1,0.1-0.1,0.2-0.1c0.1-0.1,0.1-0.1,0.3-0.1c0.1,0.1,0.1,0.1,0,0.1c-0.2,1-0.2,2,0,2.9
			c0.1,0.3,0.1,0.6-0.2,0.6s-0.4-0.3-0.4-0.6C-145.2-111.1-145.2-112-145.1-113z"/>
		<path class="st4" d="M-91.6-112.8c0-0.7-0.4-1.8,1.1-1.6c-0.2,0.5-0.3,1-0.2,1.5C-91-112.7-91.3-112.6-91.6-112.8z"/>
		<path class="st4" d="M-156.6-111.3c0.1-1-0.1-1.9-0.4-2.8C-155.9-113.5-155.7-112.7-156.6-111.3z"/>
		<path class="st5" d="M-148.8-110.8c-0.1-0.3-0.1-0.5,0-0.8c1-0.5,0.2-1.4,0.7-2c0.2,1,0.1,2.1-0.2,3.1
			C-148.6-110-148.6-110.8-148.8-110.8z"/>
		<path class="st2" d="M-152.8-113.4c-0.5,0.1-0.7-0.3-0.7-1.2c0-0.3,0-0.7,0.3-0.8c0.3-0.1,0.4,0.2,0.4,0.4
			C-152.8-114.5-152.8-114.1-152.8-113.4z"/>
		<path class="st6" d="M-180.8-112c-0.3-0.9-0.3-1.8-0.1-2.7c0.3-0.1,0.5,0.1,0.5,0.4C-180.7-113.5-180.2-112.7-180.8-112z"/>
		<path class="st2" d="M-164.9-114.4c0.1-0.1,0.1-0.1,0.3-0.1c-0.2,1.6,0.4,3.1-0.4,4.6c-0.1,0-0.2-0.1-0.1-0.2
			C-164.6-111.5-165.1-112.9-164.9-114.4z"/>
		<path class="st2" d="M-148.7-113.8c-0.2,0-0.3,0-0.4-0.1c-0.1-0.6-0.2-1.4,0.3-1.5c0.9-0.1,0.3,0.6,0.3,1
			C-148.6-114.2-148.6-114-148.7-113.8z"/>
		<path class="st2" d="M-83.8-114c0.1-0.1,0.1,0,0.1,0.1c0.5,0.8,0.3,1.8-0.5,2.3c0,0-0.1,0-0.1,0c-0.1,0.1-0.2,0.1-0.4,0.1
			C-84.6-112.4-84-113-83.8-114z"/>
		<path class="st2" d="M-165.2-110.2v0.3c-0.2,0.3-0.5,0.4-0.6,0c-0.2-0.8-0.1-1.5,0.3-2.2C-165.1-111.5-165.3-110.9-165.2-110.2z"
			/>
		<path class="st7" d="M-98.9-110.4c-0.2-0.6-0.4-1.2,0.3-1.6C-98.1-111.4-98.4-110.9-98.9-110.4z"/>
		<path class="st8" d="M-180.9-111.9c0.6-0.7,0.1-1.5,0.5-2.2c0,0.9,0.4,1.9-0.3,2.9C-180.9-111.4-180.9-111.6-180.9-111.9z"/>
		<path class="st2" d="M-77.6-110.2c0,0.4-0.1,0.6-0.5,0.6c-0.3,0-0.3-0.3-0.3-0.5c0-0.6,0.1-1.1,0.2-1.6c0.4,0.2,0.3,0.6,0.4,1.1
			C-77.8-110.5-77.7-110.3-77.6-110.2z"/>
		<path class="st2" d="M-76.8-112.9c0.2,0.3,0.4,0.7,0.3,0.8c-0.3,0.5-0.5-0.5-1,0c-0.1,0.1-0.2,0.1-0.2,0
			C-76.8-112-77.5-113-76.8-112.9z"/>
		<path class="st4" d="M-73.3-112.4c0-0.2-0.1-0.4-0.1-0.6c0.1-0.2,0.2-0.2,0.4-0.2c0,0,0,0,0,0c0.2,1,0.2,2-0.1,3
			C-73.4-110.8-73.2-111.6-73.3-112.4z"/>
		<path class="st5" d="M-73.4-112.4c0.5,0.5,0.1,1.3,0.3,2.2c0,0.1,0,0.1,0,0.1C-73.7-110.8-73.3-111.6-73.4-112.4z"/>
		<path class="st4" d="M-91.5-110.4c-0.1-0.3-0.2-0.7-0.1-1C-90.9-111.2-90.8-110.9-91.5-110.4z"/>
		<path class="st2" d="M-77.7-113c0.1,0,0.1,0.2,0.1,0.3c0.1,0.9,0.1,1.7,0,2.6c-0.1,0.1-0.2,0-0.3-0.2c-0.2-0.6-0.2-1.3-0.1-1.9
			C-77.9-112.6-77.8-112.8-77.7-113z"/>
		<path class="st8" d="M-106.3-112c-0.1-0.3-0.1-0.7,0-1C-105.9-112.8-105.7-112.4-106.3-112z"/>
		<path class="st2" d="M-77.8-112.7c-0.4-0.5-0.5-1.1-0.3-1.7c0.3,0.1,0.5,0.2,0.6,0.4C-77.3-113.5-76.7-112.8-77.8-112.7z"/>
		<path class="st2" d="M-165.3-114c0.1,0.5,0.1,1-0.1,1.4C-165.8-113.5-165.8-113.5-165.3-114z"/>
		<path class="st8" d="M-76.5-112.8c-0.1,0-0.2-0.1-0.2-0.1c0.2-0.3-0.2-0.7,0.3-0.7c0.3,0,0.3,0.4,0.3,0.7
			C-76.2-112.9-76.4-112.8-76.5-112.8z"/>
		<path class="st8" d="M-152.8-113.2C-152.8-113.3-152.8-113.3-152.8-113.2c0,0,0-0.1,0-0.1c0.3-0.1,0.3-0.5,0.6-0.4
			c0.1,0,0.1,0.1,0.1,0.2c0,0.4-0.3,0.4-0.6,0.4C-152.8-113.1-152.8-113.2-152.8-113.2z"/>
		<path class="st2" d="M-126.1-112.1c-0.1,0.1-0.2,0.1-0.4,0.1c-0.1-0.2-0.1-0.5-0.1-0.7c0.1-0.1,0.2-0.2,0.3-0.1
			C-126.1-112.6-126-112.4-126.1-112.1z"/>
		<path class="st5" d="M-72.9-113.2c-0.1,0.1-0.3,0.1-0.4,0.1c-0.1-0.2-0.1-0.5-0.1-0.7C-72.9-113.9-72.9-113.6-72.9-113.2z"/>
		<path class="st2" d="M-126-112.9c0,0.1-0.1,0.1-0.1,0.1h-0.2c0-0.2,0-0.3,0-0.5c0.1,0,0.3-0.1,0.4-0.1
			C-125.9-113.2-125.9-113.1-126-112.9z"/>
		<path class="st2" d="M-78-112.9c0.1,0.7,0.1,1.5,0.1,2.4c-0.5-0.4-0.3-1.2-0.3-2.1C-78.1-112.8-78.1-113-78-112.9z"/>
		<path class="st2" d="M-118-113.7c-0.1,0.4-0.1,0.7-0.4,0.6s-0.2-0.4-0.1-0.7C-118.3-113.9-118.1-113.9-118-113.7z"/>
		<path class="st4" d="M-78.2-112.9c0,0.1,0,0.2-0.1,0.2c0,0-0.1-0.1-0.1-0.1C-78.3-112.8-78.2-112.9-78.2-112.9z"/>
		<path class="st2" d="M-105.3-110.2c-0.2,0.1-0.4,0.1-0.6,0.1c-0.1,0-0.2,0-0.3-0.1c0-0.1,0.1-0.2,0.3-0.3
			C-105.7-110.5-105.5-110.4-105.3-110.2z"/>
		<path class="st5" d="M-149-109.8c0.1,0,0.2,0.1,0.2,0.1C-148.8-109.6-148.9-109.6-149-109.8C-149-109.9-148.9-109.8-149-109.8z"/>
		<path class="st2" d="M-106.1-110.7c0.1,0,0.2,0,0.3,0.1c0,0.1-0.1,0.1-0.3,0.3c-0.2,0-0.2,0-0.3-0.1
			C-106.3-110.5-106.2-110.6-106.1-110.7z"/>
		<path class="st8" d="M-76.2-112.8c0,0,0.1,0.1,0.1,0.1C-76.1-112.8-76.1-112.8-76.2-112.8z"/>
		<path class="st1" d="M-99-113.9c0.7-1,1.6-0.7,2.4-0.4c0.4,0.1,0.4,0.6,0.2,1c-0.4,0.8-1.2,0.5-1.8,0.5
			C-99-112.9-99-113.3-99-113.9z"/>
		<path class="st1" d="M-159.1-110.5c-0.1-0.1-0.3-0.2-0.3-0.3c0-0.1-0.1-0.2-0.2-0.2c-0.9-0.7-0.7-1.6-0.4-2.5
			c0.2-0.6,0.8-1.1,1.5-1c0.8,0,1.1,0.6,1.3,1.2c0.5,1.2,0,2.5-1.1,3.1c-0.1,0-0.2,0.1-0.3,0.1C-158.9-110.2-159-110.3-159.1-110.5z
			"/>
		<path class="st7" d="M-159.2-110.4c0.2-0.2,0.3-0.1,0.4,0.2C-159-110.1-159.1-110.2-159.2-110.4z"/>
		<path class="st7" d="M-159.7-110.9c0-0.1,0-0.2,0.1-0.3c0.1,0.1,0.1,0.1,0.1,0.2C-159.5-110.9-159.6-110.9-159.7-110.9z"/>
		<path class="st1" d="M-173.4-113.2c0.2-0.5-0.4-1.3,0.4-1.3c0.7,0,1.5-0.4,2,0.5c0.2,0.4,0.1,0.9-0.3,1.1c0,0-0.1,0-0.1,0.1
			C-172.1-112.6-172.8-112.1-173.4-113.2z"/>
		<path class="st1" d="M-84.3-111.3c0.4-0.7,0.6-1.5,0.6-2.4c1,0.3,1,1.4,1.4,2.2c0.1,0.3-0.2,0.4-0.5,0.4
			C-83.3-111.1-83.8-111.2-84.3-111.3z"/>
		<path class="st9" d="M-144.4-113.1c-0.1,0-0.2,0.1-0.3,0.1c0-0.2-0.3-0.6,0.1-0.6C-144.3-113.7-144.3-113.4-144.4-113.1z"/>
	</g>
	<g>
		<defs>
			<path id="SVGID_00000042717931315503710750000014008169263452989579_" d="M632,6044h657c20.4,0,37,16.6,37,37v362
				c0,20.4-16.6,37-37,37H632c-20.4,0-37-16.6-37-37v-362C595,6060.6,611.6,6044,632,6044z"/>
		</defs>
		<clipPath id="SVGID_00000183928922959012254950000001450249015337549752_">
			<use xlink:href="#SVGID_00000042717931315503710750000014008169263452989579_"  style="overflow:visible;"/>
		</clipPath>
		<g style="clip-path:url(#SVGID_00000183928922959012254950000001450249015337549752_);">
			<g transform="matrix(0.921, -0.391, 0.391, 0.921, 664.613, 6678.933)">
				<path class="st1" d="M326.5,215.3c253.6,0,505.8,0,758.1-0.3c12.8,0,16.5,2.9,16,16c-1.1,32.2-0.8,64.4,0,96.6
					c0.3,10.9-3.5,13-13.6,13c-184.4-0.3-368.8-0.4-553.2-0.3c-173,0-345.9,0.1-518.9,0.3c-11.7,0-14.9-2.9-14.6-14.6
					c0.5-32.2,0.8-64.4-0.3-96.6C-0.3,217.1,4,215,14.9,215C118.4,215.5,221.9,215.3,326.5,215.3z"/>
				<path class="st2" d="M1101.1,61.2c-10.4,51.9-58,78-109.1,60.7c-20.5-6.9-37.5-19.4-51.4-36.2c-17.6-20.8-34.9-41.5-52.4-62.3
					c-10.4-12.2-12.2-12.2-22.1,0c-17.6,21.8-34.3,44.2-52.7,65.5c-26.6,31.1-59.9,46.8-101.6,37.8c-43.1-9.3-68.4-51.6-55.6-94.2
					c6.1-20.8,17-38.6,30.6-55.3c24.5-30.3,49-60.7,74-90.7c5.1-6.1,5.1-9.8,0-16c-20.8-24.7-41.2-49.5-61.2-74.8
					c-14.9-18.6-28.2-38.6-32.2-62.5c-9.6-57.7,41.8-101.4,101.1-86.2c23.7,5.8,44.6,19.7,59.3,39.1c13.3,17,26.1,34.6,38.8,51.9
					c6.1,8.5,11.2,9,17.3,0c12.2-17.8,24.7-35.4,37.5-53c24.5-33.5,66.8-49.5,105.4-40.2c42.6,10.6,66.5,52.2,53.7,94.5
					c-6.1,20.5-17.6,38.6-30.6,55.3c-18.9,23.9-37.3,48.4-56.7,71.8c-6.1,7.4-6.7,12.2,0,20.2c25.3,28.7,49.9,57.8,74,87.3
					C1087.2-1.1,1104.8,25.3,1101.1,61.2z"/>
				<path class="st2" d="M2.1-247.7v-27.9c0.8-40.4,22.9-68.1,62-77.4c18.6-4.5,38-4.6,56.7-0.3c39.6,9,62.5,37.3,62.8,78.2
					c0.3,72.4,0,145,0.3,217.4c0,19.2-2.1,16.5,17,16.8c32.7,0.5,65.5-2.1,97.9,1.3c49.8,5.3,77.4,35.9,77.4,82.5
					c0,46.3-27.1,79-76.4,81.7c-75.3,4-150.9,4.8-225.9-0.5C27.7,120.3,2.4,88.3,2.1,42L2.1-247.7z"/>
				<path class="st3" d="M530.8-80.4c-87.5,16.5-160.7-34.3-173.5-119.2c-12-80.1,54.3-155.9,134.9-158.3
					c65.5-1.9,132.2,44.2,143.7,118.4C647.4-166.3,604.5-101.6,530.8-80.4z"/>
				<path class="st2" d="M595-77.2c5.6,1.1,2.1,4,1.3,5.9C579-11.4,556.1,46.3,530.8,103.2c-2,4.2-4.4,8.2-7.2,12
					c-14.1,18.4-36.7,18.1-50.6-0.3c-7.2-9.6-11.7-20.5-16.5-31.4c-23.1-52.7-43.4-106.4-60.1-165.2c12.2,12.2,22.4,21.8,34.3,29.3
					c3.5,2.1,4,6.4,5.3,9.8c5.6,16,11.2,31.9,17,47.9c3.5,9.6,10.1,13.8,19.7,10.4c9.8-3.5,9.8-11.2,6.7-20
					c-3.7-9.8-6.9-20-11.2-31.7C518.3-27.1,560.4-40.4,595-77.2z"/>
				<path class="st2" d="M634.3,267.1c1.3,7.2,5.1,9.3,11.4,7.4c3.5-1.1,7.5-1.1,7.5,3.7c0,4.5-3.5,4.3-7.2,4.3
					c-6.4,0-16.5-5.6-14.9,9c0.5,5.6,1.1,8.2,7.5,8c5.9-0.3,11.7,2.1,17.6-0.3c2.9-1.1,6.1-1.3,6.7,2.9c0.5,4.8-2.7,5.6-6.4,5.3
					c-7.7-0.3-15.2-0.8-22.9-0.8c-5.3,0-7.5-2.1-8.2-7.4c-0.8-6.7-0.8-13.5,0-20.2c2.4-27.4,2.1-27.1,29-28.2c3.7,0,5.9,0.8,6.1,4.5
					c0,4-2.7,5.1-6.1,4.8c-7.7-0.5-15.4-1.3-22.6,4.5C632,264.2,633,265.5,634.3,267.1z"/>
				<path class="st2" d="M810.8,295.3c0.5,3.2,2.9,6.7-0.8,8.2c-3.5,1.3-5.1-2.1-5.1-5.3v-41.8c0-1.7,0.5-3.3,1.6-4.5
					c2.7-2.9,25.5-1.9,29,1.6c7.7,7.5,8.2,15.2,0.5,22.9c-7.7,7.5-0.3,12.8,2.7,18.6c1.3,2.7,5.3,6.1,0.8,8.2
					c-3.5,1.9-4.5-2.7-5.9-5.1c-2.2-4.1-4-8.4-5.6-12.8c-2.1-6.7-6.1-7.2-12.5-4.3C811.8,285.2,813.2,290.3,810.8,295.3z"/>
				<path class="st2" d="M278.6,287.9c-4,10.1-7.5,19.7-20.5,17.8c-11.4-1.6-18.6-10.9-19.2-24.7c-0.5-15.2,4.5-24.7,14.6-27.9
					c8.5-2.7,15.7-2.1,20.5,7.7C281.8,269.3,281.5,278.1,278.6,287.9z"/>
				<path class="st2" d="M140.8,252c10.9,4.3,12.2,12.8,10.4,21.3c-1.9,8.8-10.1,10.1-17.3,9.8c-11.7-0.8-14.4,4-11.4,14.4
					c0.8,2.7,2.9,6.4-1.9,6.9c-3.2,0.3-5.3-3.2-4.5-6.4c2.7-13,0.3-26.1,1.1-39.4c0.3-6.1,2.9-8.2,8.8-7.7
					C130.7,251.4,135.2,251.4,140.8,252z"/>
				<path class="st2" d="M55.1,288.4c-0.3,11.7,8,7.7,13.3,8.2c5.6,0.5,8.5-3.5,8.8-8.8c0.3-10.1,0.3-20.2,0.3-30.3
					c0-3.5,0.3-8,4.3-8c4.8,0.3,3.2,5.1,2.7,8.2c-1.9,9.6-2.1,19.4-0.5,29c2.4,15.4-11.4,13.8-18.9,16c-6.8,1.9-13.8-2-15.8-8.7
					c-0.2-0.8-0.4-1.6-0.5-2.4c-1.3-12.2-2.4-24.5-2.1-36.7c0-6.1,4.3-5.6,7.7,0c2.1,8.8,0,17,2.4,25.5
					C56.8,283.2,56.3,285.9,55.1,288.4z"/>
				<path class="st2" d="M510.9,295.6c-0.3-8.2-0.8-15.4-0.5-22.6c0.3-7.2-0.5-13.3-9.8-15.2c6.7-6.7,14.9-1.3,21-5.9
					c1.6-1.3,3.2,2.1,3.7,4c0.5,2.4-0.5,4.8-2.7,4.8c-10.4-0.8-6.9,6.9-7.2,12c-0.3,5.9-0.3,11.7,0,17.8c0,4.3-1.9,10.1,6.7,7.7
					c2.7-0.8,3.5,2.1,3.7,4c0.3,2.9-1.3,4.8-4.5,4.8h-17.6C502.4,300.4,511.7,302.5,510.9,295.6z"/>
				<path class="st2" d="M951.5,263.4c1.3-4.5-1.1-9.6,4.5-12.8c7.2,16.5,12,34.1,20.5,49.8c0.8,1.6,1.1,3.2-0.5,4.5
					c-2.4,1.6-4,0.3-5.3-1.3c-9-9.8-23.9-9.3-33,2.9c-2.1-8,4.3-12.5,5.3-18.9c1.1-1.9,2.1-2.4,4.3-2.9c14.4-0.3,14.4-0.5,4.8-17.8
					C951.5,265.8,951.3,264.6,951.5,263.4z"/>
				<path class="st2" d="M885.3,274.1c5.3,4.3,15.4-5.1,15.4,3.7c0,9.8-10.1,1.6-15.4,4c-2.1,1.1-5.3-0.5-6.4,3.7
					c1.9,3.7,2.4,6.4,0.5,10.6c7.2,5.1,15.2,4.5,23.1,3.5c3.5-0.5,8.5-2.9,8.2,3.5c0,5.6-4.8,4.5-8.8,4.3c-0.5,0-0.8-0.3-1.3-0.3
					c-29.5-1.6-29.5-1.6-27.4-32.2c0.8-1.9,1.9-2.4,3.7-2.9C879.9,271.8,882.8,272.5,885.3,274.1z"/>
				<path class="st2" d="M417.8,305.7c-6.7-2.9-8.5-6.1-5.3-13.3c4.5-9.6,2.7-20.8,2.1-31.1c0-4.5-0.8-8.2,5.6-10.4
					C420.9,269.5,423.6,287.6,417.8,305.7z"/>
				<path class="st2" d="M743.4,295.1c-8.5-9.3-7.5-20-3.7-30.9c2.9-8.8,10.4-12.2,18.9-12.2c7.5,0,10.9,7.2,15.4,12
					c1.6,1.9,1.1,5.1-1.6,6.7c-2.7,1.6-3.2-1.1-4.5-2.7c-8.5-10.9-15.2-10.4-24.5,2.4c0.3,3.7,0.5,6.7-1.1,10.4
					c0.6,3.9,1.7,7.8,3.2,11.4C745.3,293.5,744.8,294,743.4,295.1z"/>
				<path class="st2" d="M559.8,281c1.9,3.7,2.7,7.2,4.3,9.8c2.9,4.8,6.7,9.3,13,8.5c6.1-0.8,9.6-4.8,10.9-10.9
					c0.5-2.4,0.3-5.3,5.1-5.3c2.7,8.2,0.5,15.7-6.7,20.5c-6.9,4.8-14.6,3.2-21-2.7c-5.3-4.8-8-10.9-9-18.6
					C557.2,280.7,558,280.2,559.8,281z"/>
				<path class="st2" d="M385.3,271.7c-0.5-5.1-0.8-9.8-1.3-14.4c-0.5-3.7,1.1-5.9,4.3-6.4c2.4-0.3,6.1-0.5,6.4,2.4
					c1.1,11.7,7.5,21.3,12.8,31.1c0.8,1.3-0.3,3.7-0.5,6.4c-7.5-6.4-8.5-16.5-17.6-21c-0.8,0.6-1.6,1.3-2.1,2.1
					C386.5,272.2,385.8,272.1,385.3,271.7z"/>
				<path class="st2" d="M558.5,269.3c0.3-10.4,6.4-14.6,15.7-16.8c9.3-2.1,12,5.9,17.3,9.8c2.7,2.1,2.9,5.6,0.5,7.7
					c-4.3,3.5-4.3-1.6-5.9-3.5c-6.1-8.5-13.3-8.2-23.1,1.3C561.4,269.5,560.6,269.8,558.5,269.3z"/>
				<path class="st2" d="M202.2,259.4c-3.5-1.3-5.6,9-8.8-0.5c-0.3-1.1-1.9-2.4-2.7-2.1c-5.3,1.1-12.8,2.9-12.2-4.5
					c0.3-4.5,8.8-1.1,13.6-1.6c4.5-0.5,9.3-0.3,13.8-0.3c4,0,9.6-5.6,11.2,2.1c1.9,8.8-6.7,4.8-11.4,6.9
					C204.1,259.7,203.6,260,202.2,259.4z"/>
				<path class="st2" d="M1036.4,266.6c0-4.5,2.4-7.7,5.3-10.1c1.3-1.1,4.3-2.1,5.6-1.6c2.9,1.9-0.8,4.5,0,7.4
					c1.1,2.4,1.6,5.1,1.6,7.7v6.1c-0.3,7.7,0.8,14.6-0.5,22.1c-0.3,2.9,1.1,6.4-2.4,6.7c-4,0.3-4.5-2.7-4.5-5.9v-29.5
					C1040.1,267.4,1038.5,267.4,1036.4,266.6z"/>
				<path class="st2" d="M878.6,273.3c-1.4,0.4-2.8,0.6-4.3,0.5c-0.7-4.9-1.1-9.9-1.1-14.9c0-3.2,1.3-5.9,5.1-5.9
					c8.2-0.3,16.8,0.8,25-1.9c2.9-0.8,4.8,1.6,5.1,4.3c0.3,3.2-2.1,4.5-4.8,4.5c-4.3,0.3-8.2,0-13.6,0
					C881.5,261,882.3,268.2,878.6,273.3z"/>
				<path class="st2" d="M750.9,298.5c14.4,3.2,17-6.9,21.3-19.2c4.5,10.9,2.4,17.8-2.9,22.6c-7.2,6.4-15.4,5.1-23.4-1.9
					C746.6,298.3,748.2,297.7,750.9,298.5z"/>
				<path class="st2" d="M312.4,269.8c1.9,4.3,1.6,6.9,2.1,9.8c0.3,2.1-0.5,5.9,2.4,6.1c3.5,0.3,3.5-3.7,5.6-6.4
					c1.6-1.3,2.7-1.6,4.5-0.8c0.3,8.2-6.4,13.6-8.2,20.8c-1.1,3.7-6.4,5.1-6.7,0C311.9,289,306.3,279.1,312.4,269.8z"/>
				<path class="st2" d="M1035.1,266.6c1.9,0,3.8,0.5,5.6,1.3c-6.7-0.5-5.3,4.8-5.6,8.8c-0.1,4.7-1.7,9.3-4.5,13
					c-2.7,3.5-6.9,2.9-9.8,0c-3.2-3.2-0.3-4,2.4-5.9C1029.2,279.6,1030.5,272.5,1035.1,266.6z"/>
				<path class="st2" d="M328.1,278.1c-1.1,0.8-2.1,0.8-4,0.5c3.5-4.8-0.3-13.8,9.3-17c-1.3,8.5,9.3,13.3,5.6,22.6
					C333.1,284.4,334.7,275.1,328.1,278.1z"/>
				<path class="st2" d="M350.2,290.8c-0.7,3.1-1.1,6.4-1.1,9.6c-6.7-2.4-10.6-5.3-5.3-14.1c3.2-5.6,2.1-13.6,3.5-21.6
					c1.6-1.6,2.7-1.3,4,0.5c0,6.1-0.5,11.2-0.8,17.6C351.2,285.8,351.5,287.9,350.2,290.8z"/>
				<path class="st2" d="M384.5,272.5c0.4-0.8,1.3-1.2,2.1-1.1c1.1-0.5,1.3-1.1,2.4-0.8c0.5,0.8,0.5,0.5,0.3,0.5
					c-1.7,9-1.8,18.1-0.3,27.1c0.5,2.4,1.3,5.3-2.1,5.6c-3.5,0.3-3.5-3.2-3.5-5.3C383.7,290.3,384,281.8,384.5,272.5z"/>
				<path class="st4" d="M878.6,274.3c0.3-6.9-3.7-16.5,9.8-14.6c-1.6,4-3.2,8-2.1,13.6C883.9,275.7,881.5,275.9,878.6,274.3z"/>
				<path class="st4" d="M278.6,288.4c-0.8-8,0.8-16.8-3.7-25.8C285,267.9,286.3,275.1,278.6,288.4z"/>
				<path class="st5" d="M350.2,292.2c-0.5-2.5-0.6-5-0.3-7.5c8.8-4.3,1.9-12.8,6.4-18.4c1.9,10.1,1.3,19.7-2.1,28.2
					C352,299.6,352.3,292.7,350.2,292.2z"/>
				<path class="st2" d="M313.7,268.2c-5.1,0.8-6.7-2.4-6.9-10.6c0-3.2,0-6.1,3.2-7.2c2.4-0.8,3.5,1.6,3.5,3.7
					C313.7,258.1,313.7,262.4,313.7,268.2z"/>
				<path class="st6" d="M55.1,281.5c-2.7-8-2.7-16-1.1-24.7c2.9-0.5,4.8,0.5,5.1,4C55.9,267.9,60.4,275.4,55.1,281.5z"/>
				<path class="st2" d="M201.7,259.7c0.5-1.1,1.3-1.1,2.4-0.5c-1.9,14.4,3.5,28.7-3.7,42.6c-1.3-0.3-1.6-0.8-1.3-1.9
					C204.4,286.6,200.4,273.5,201.7,259.7z"/>
				<path class="st2" d="M351.5,265.3c-1.3,0.3-2.4-0.3-4-1.3c-1.1-5.3-1.9-13,2.7-13.6c8.2-1.1,3.2,5.3,2.7,9
					C352.8,261.3,352.3,262.6,351.5,265.3z"/>
				<path class="st2" d="M951,263.4c0.5-0.8,1.1,0.3,1.1,0.8c4.8,8.8,2.9,15.7-5.1,22.1c-1,0.7-2.3,0.9-3.5,0.5
					C943,278.3,949.1,271.9,951,263.4z"/>
				<path class="st2" d="M199.3,298v3.2c-2.1,2.9-4.8,3.5-5.3,0c-1.5-7-0.6-14.3,2.4-20.8C200.1,285.8,198,291.6,199.3,298z"/>
				<path class="st7" d="M811.3,296.1c-1.6-5.3-3.7-10.9,2.4-14.9C818.2,287.1,815.8,291.6,811.3,296.1z"/>
				<path class="st8" d="M53.8,282.6c5.3-6.4,0.8-13.8,4.5-20.2c-0.3,8.2,4,17.8-2.7,26.6C54.3,287.4,54,285.5,53.8,282.6z"/>
				<path class="st2" d="M1007.7,298.5c0.3,3.5-1.1,5.6-4.3,5.3c-2.7,0-3.2-2.4-2.9-4.5c0.1-5.1,0.7-10.2,1.9-15.2
					c3.7,2.1,3.2,5.6,3.7,9.8C1006.4,295.6,1007,297.1,1007.7,298.5z"/>
				<path class="st2" d="M1015.1,273c2.1,3.2,4,6.4,3.2,7.7c-2.4,4.3-4.8-4.3-8.8,0.3c-1.3,0.8-1.9,0.5-1.9-0.3
					C1015.1,281.2,1008.7,272.2,1015.1,273z"/>
				<path class="st4" d="M1047.3,277.5c-0.4-1.8-0.6-3.7-0.5-5.6c1.1-1.6,2.1-2.1,4-1.3c1.1,9.3,2.7,17.8-0.8,27.4
					C1046.2,292.7,1048.4,285.5,1047.3,277.5z"/>
				<path class="st5" d="M1046.8,277.5c4.3,5.1,1.3,12.2,2.4,20.2c0,1.3-0.3,1.3-0.3,1.3C1043.9,293,1047.6,285.5,1046.8,277.5z"/>
				<path class="st4" d="M879.7,296.7c-1.1-2.7-1.3-5.3-1.3-9.3C885,288.7,885.5,292.2,879.7,296.7z"/>
				<path class="st2" d="M1007.1,271.9c0.5,0.3,0.5,1.9,1.1,2.4c0.6,8,0.7,16,0.3,23.9c-1.1,0.5-1.9-0.3-2.9-1.9
					c-2.1-5.9-1.1-11.2-1.1-17.8C1005.5,275.1,1006.1,273.5,1007.1,271.9z"/>
				<path class="st8" d="M742.6,281.2c-1.1-2.9-1.1-5.9-0.3-9.6C746.9,274.3,748,277.5,742.6,281.2z"/>
				<path class="st2" d="M1005.5,274.9c-3.5-5.3-5.6-10.1-2.9-15.4c0.3-0.3,4.5,1.9,5.9,4C1010.9,267.4,1016.4,273.8,1005.5,274.9z"
					/>
				<path class="st2" d="M198.5,263.2c0.5,5.1,1.3,9-1.1,13.3C193.2,267.4,193.2,267.4,198.5,263.2z"/>
				<path class="st8" d="M1017.8,273.8c-1.1,0-1.9-0.5-1.9-0.8c1.9-2.4-1.6-6.9,2.9-6.9c2.7,0,2.9,3.5,2.7,6.9
					C1020.2,273.8,1019.6,273.8,1017.8,273.8z"/>
				<path class="st8" d="M313.7,270.1C314,269.5,314,269.8,313.7,270.1c0.3,0-0.3-0.5,0-1.1c2.4-1.1,2.7-5.1,5.9-3.7
					c0.6,0.4,1,1.1,1.1,1.9c0,3.5-2.4,3.7-5.6,4C314,271.1,313.5,270.3,313.7,270.1z"/>
				<path class="st2" d="M560.4,280.4c-1.1,1.1-1.9,1.1-3.5,1.1c-0.8-1.9-0.8-4-0.5-6.7c0.7-0.9,1.8-1.4,2.9-1.3
					C560.4,275.7,560.7,278.1,560.4,280.4z"/>
				<path class="st5" d="M1051.3,270.6c-1.1,0.8-2.1,0.8-3.7,0.8c-0.8-2.1-0.8-4-0.5-6.9C1051,264,1051.6,266.6,1051.3,270.6z"/>
				<path class="st2" d="M560.6,273.3c-0.3,0.5-1.3,0.5-1.3,0.5h-1.9c-0.5-1.3-0.3-2.7,0-4.5c1.3-0.5,2.6-0.6,4-0.5
					C562,270.1,561.4,271.4,560.6,273.3z"/>
				<path class="st2" d="M1004.2,273c0.8,6.9,1.1,13.6,1.3,22.1c-4.3-3.5-2.7-10.6-2.9-19.2C1002.9,274.1,1003.7,272.7,1004.2,273z"
					/>
				<path class="st2" d="M634.6,265.5c-0.5,3.7-1.1,6.7-3.5,5.3c-2.4-1.3-1.9-4-0.8-6.7C631.9,263.7,633.7,264.2,634.6,265.5z"/>
				<path class="st4" d="M1002.3,273c0,0.7-0.2,1.5-0.5,2.1c-0.3-0.3-0.8-0.5-0.5-0.8C1001.5,273.8,1001.9,273.3,1002.3,273z"/>
				<path class="st2" d="M751.7,298.3c-1.1,0.8-2.7,0.8-5.3,0.8c-1.1,0-2.1-0.3-2.4-0.8c0.3-1.1,1.1-1.6,2.4-2.7
					C748.4,295.8,750.3,296.7,751.7,298.3z"/>
				<path class="st5" d="M348.8,301.5c0.5,0.3,1.9,0.8,1.9,1.1c-0.5,1.1-1.1,1.1-1.6-0.5C348.8,301.2,349.1,301.5,348.8,301.5z"/>
				<path class="st2" d="M745,293.8c1.3-0.3,1.9,0,2.4,0.8c-0.3,0.8-1.1,1.3-2.4,2.7c-1.6,0.3-1.9,0-2.4-1.1
					C742.9,295.1,743.4,294.8,745,293.8z"/>
				<path class="st8" d="M1021,273.8c0.3,0.3,0.8,0.5,1.1,1.1C1021.6,274.6,1021.2,274.2,1021,273.8z"/>
				<path class="st1" d="M810.5,263.7c6.4-9,14.6-6.4,22.1-4c3.5,1.1,3.7,5.9,1.9,9c-4,7.2-10.6,4.5-17,4.8
					C810.5,273.5,810.2,269.8,810.5,263.7z"/>
				<path class="st1" d="M255.2,295.3c-1.3-0.5-2.5-1.4-3.2-2.7c0-0.9-0.7-1.7-1.6-1.9c-8.2-6.7-6.1-14.9-3.5-22.9
					c1.9-5.9,6.9-9.6,13.6-9.6c7.2,0,10.1,5.6,12,11.2c4.8,13-0.5,25-13.3,29.3C256.8,298.3,256.5,296.9,255.2,295.3z"/>
				<path class="st7" d="M254.6,296.1c2.1-2.1,2.7-0.5,3.5,1.9C256.5,299.1,255.2,298.5,254.6,296.1z"/>
				<path class="st7" d="M250.1,291.6c0-1,0.3-2,0.8-2.9c0.7,0.5,1.2,1.3,1.3,2.1C251.5,291.9,251.2,291.9,250.1,291.6z"/>
				<path class="st1" d="M123.2,270.9c1.9-4.8-3.7-11.7,4-12c6.1,0,14.1-3.7,18.1,4.3c2.1,4,1.1,9.3-3.5,10.9
					C135.7,276.2,128.5,280.4,123.2,270.9z"/>
				<path class="st1" d="M946.2,287.9c2.9-7.5,6.7-13.6,5.9-21.8c9.6,2.9,9.6,12.8,12.8,20.5c1.3,3.2-2.1,3.7-4.8,3.5
					C955.5,289.2,951,289.2,946.2,287.9z"/>
				<path class="st9" d="M390.9,271.1c-0.9,0.4-1.9,0.6-2.9,0.5c0-2.1-2.7-5.6,1.1-5.9C391.7,265.5,392.2,268.5,390.9,271.1z"/>
			</g>
		</g>
	</g>
</g>
</svg>
